<?xml version="1.0" encoding="UTF-8"?>
<svg width="40px" height="40px" viewBox="0 0 40 40" version="1.1" xmlns="http://www.w3.org/2000/svg" xmlns:xlink="http://www.w3.org/1999/xlink">
    <!-- Generator: Sketch 60.1 (88133) - https://sketch.com -->
    <title>grab</title>
    <desc>Created with Sketch.</desc>
    <g id="页面-4" stroke="none" stroke-width="1" fill="none" fill-rule="evenodd">
        <g id="Whiteboard-Guidelines" transform="translate(-552.000000, -295.000000)">
            <g id="grab" transform="translate(552.000000, 295.000000)">
                <rect id="矩形备份-16" fill="#FFFFFF" opacity="0.01" x="0" y="0" width="40" height="40" rx="2"></rect>
                <path d="M28,22.1666815 C28,23.9804876 27.2778534,25.7196596 25.9930885,27 C24.7078462,28.280816 22.9673382,29 21.1528584,29 L20.4740817,29 C18.3060545,29 16.3081008,27.825712 15.2533611,25.9315457 L12.1652409,20.3857097 C11.8122909,19.7518605 12.0400047,18.9519018 12.6738539,18.5989518 C12.7455829,18.5590106 12.8208983,18.5258817 12.8988117,18.5 C13.8009279,18.2003302 14.7939769,18.5017339 15.3773423,19.2522674 L15.9585307,20 L15.9585307,13.5051837 C15.9585307,12.6738937 16.6324244,12 17.4637144,12 C18.2950043,12 18.968898,12.6738937 18.968898,13.5051837 L18.968898,12.5051837 C18.968898,11.6738937 19.6427917,11 20.4740817,11 C21.3053717,11 21.9792654,11.6738937 21.9792654,12.5051837 L21.9792654,13.5051837 C21.9792654,12.6738937 22.653159,12 23.484449,12 C24.315739,12 24.9896327,12.6738937 24.9896327,13.5051837 L24.9896327,16.5051837 C24.9896327,15.6738937 25.6635264,15 26.4948163,15 C27.3261063,15 28,15.6738937 28,16.5051837 L28,22.1666815 Z M18.968898,13 L18.968898,19 M21.9792654,13 L21.9792654,19 M24.9896327,16 L24.9896327,19" id="形状结合备份-2" stroke="#212324" stroke-linecap="round" stroke-linejoin="round"></path>
            </g>
        </g>
    </g>
</svg>