<?xml version="1.0" encoding="UTF-8"?>
<svg width="58px" height="22px" viewBox="0 0 58 22" version="1.1" xmlns="http://www.w3.org/2000/svg" xmlns:xlink="http://www.w3.org/1999/xlink">
    <!-- Generator: Sketch 60.1 (88133) - https://sketch.com -->
    <title>fileTransImg</title>
    <desc>Created with Sketch.</desc>
    <g id="页面-4" stroke="none" stroke-width="1" fill="none" fill-rule="evenodd">
        <g id="Whiteboard-Guidelines" transform="translate(-152.000000, -795.000000)">
            <g id="fileTransImg" transform="translate(152.000000, 795.000000)">
                <g id="编组-8备份" transform="translate(36.000000, 0.000000)">
                    <g id="undo备份-5">
                        <rect id="矩形备份-19" fill="#FFFFFF" opacity="0.01" x="0" y="0" width="22" height="22"></rect>
                        <rect id="矩形" stroke="#B9C0C5" stroke-linecap="round" stroke-linejoin="round" x="5" y="5" width="12" height="12" rx="2"></rect>
                    </g>
                    <path d="M5,14 L7.58578644,11.4142136 C8.36683502,10.633165 9.63316498,10.633165 10.4142136,11.4142136 L12,13 L12,13 L12.5857864,12.4142136 C13.366835,11.633165 14.633165,11.633165 15.4142136,12.4142136 L17,14 L17,14" id="路径-21备份" stroke="#B9C0C5" stroke-linecap="round" stroke-linejoin="round"></path>
                    <circle id="椭圆形备份" fill="#B9C0C5" cx="13" cy="8" r="1"></circle>
                </g>
                <g id="编组-9">
                    <rect id="矩形备份-19" fill="#FFFFFF" opacity="0.01" x="0" y="0" width="22" height="22"></rect>
                    <path d="M8,5 L12,5 L12,5 L16,9 L16,15 C16,16.1045695 15.1045695,17 14,17 L8,17 C6.8954305,17 6,16.1045695 6,15 L6,7 C6,5.8954305 6.8954305,5 8,5 Z" id="矩形" stroke="#B9C0C5" stroke-linecap="round" stroke-linejoin="round"></path>
                    <path d="M12,5 L16,9 L14,9 C12.8954305,9 12,8.1045695 12,7 L12,5 L12,5 Z" id="矩形" stroke="#B9C0C5" stroke-linecap="round" stroke-linejoin="round"></path>
                    <line x1="9" y1="12" x2="13" y2="12" id="路径-3" stroke="#B9C0C5" stroke-linecap="round" stroke-linejoin="round"></line>
                    <line x1="9" y1="14" x2="11" y2="14" id="路径-3备份" stroke="#B9C0C5" stroke-linecap="round" stroke-linejoin="round"></line>
                </g>
                <line x1="24" y1="9.5" x2="32" y2="9.5" id="路径-22" stroke="#71C3FC" stroke-linecap="round" stroke-linejoin="round"></line>
                <line x1="24" y1="12.5" x2="32" y2="12.5" id="路径-22备份" stroke="#71C3FC" stroke-linecap="round" stroke-linejoin="round"></line>
                <polyline id="路径-23" stroke="#71C3FC" stroke-linecap="round" points="31 14 34 11 31 8"></polyline>
            </g>
        </g>
    </g>
</svg>