<?xml version="1.0" encoding="UTF-8"?>
<svg width="640px" height="361px" viewBox="0 0 640 361" version="1.1" xmlns="http://www.w3.org/2000/svg" xmlns:xlink="http://www.w3.org/1999/xlink">
    <!-- Generator: Sketch 55.1 (78136) - https://sketchapp.com -->
    <title>编组</title>
    <desc>Created with Sketch.</desc>
    <g id="页面1" stroke="none" stroke-width="1" fill="none" fill-rule="evenodd">
        <g id="编组" fill-rule="nonzero">
            <g id="default_cover" fill="#ECF2F2">
                <rect id="矩形" x="0" y="0" width="640" height="361"></rect>
            </g>
            <g id="首页" transform="translate(212.000000, 81.000000)">
                <path d="M65.1234456,33.1797235 C64.7203092,33.5842412 64.3171729,34.3937507 63.9142727,34.7982684 C57.8684081,41.6779139 50.6133707,46.5340227 43.3583332,51.7946491 C42.1491603,53.4134311 40.9399874,54.6274583 39.7308145,56.2462402 C38.9245418,59.8883218 37.3124687,63.1256486 34.4909865,65.553703 C25.6236398,72.8378662 18.7717387,81.3360566 9.50149178,87.8109473 L9.09835542,88.215465 C9.09835542,88.6202197 8.69521906,89.0249745 8.69521906,89.8342469 C7.88918251,94.285601 5.06770034,97.5231649 1.84331797,100.355737 L5.4708367,103.997819 L6.68000961,103.997819 C11.9198376,103.997819 15.9502565,105.6166 18.7717387,108.044655 C27.2359491,107.235382 35.7001594,111.281982 37.7153689,122.208226 C38.9245418,128.683117 38.5216416,133.943981 37.7153689,139.204607 C37.7153689,143.251444 36.9093323,147.29828 34.8941229,150.940361 C34.8941229,151.749634 34.4909865,152.558906 34.4909865,152.963661 C35.7001594,157.415015 35.2970231,162.271124 34.0878501,166.31796 C36.506196,170.769314 37.3124687,176.030178 36.506196,181.291041 C36.506196,182.100314 36.9093323,182.909586 36.9093323,183.719096 L36.9093323,186.14715 C45.776679,186.551668 54.2408894,187.361177 63.9142727,190.598504 C82.8579028,197.882667 104.219879,197.477913 123.566645,193.431313 C126.388128,193.026559 130.015646,191.812531 132.433992,192.217286 C136.867547,179.672259 140.092166,161.057097 140.092166,146.893525 C139.285893,96.3091377 108.65367,52.6041586 65.1234456,33.1797235 L65.1234456,33.1797235 Z" id="路径" fill="#BFD7D6"></path>
                <path d="M37.8726686,60.8294931 C37.0692323,63.252284 35.4628304,65.2711976 33.454475,66.8864704 C24.6185584,74.1548432 17.7905265,82.6346115 8.5528918,89.0952295 L8.15117365,89.4991069 C8.15117365,89.9029843 7.74969084,90.306625 7.74969084,91.1143797 C6.94625454,95.5560842 4.13493351,98.7863933 0.921658986,101.613062 L4.53641632,105.247248 L5.74133543,105.247248 C12.9708501,105.247248 18.1922447,108.477557 21.4052839,112.919498 C31.0446368,115.342289 35.8643132,124.629575 35.4628304,133.513221 C37.8726686,139.973839 37.0692323,147.646089 33.0529922,153.299189 C34.6593941,157.74113 34.2579113,162.990353 32.651274,167.432294 C36.2660313,173.892912 36.2660313,182.37268 33.0529922,188.833535 C33.0529922,190.448808 33.454475,192.467721 33.0529922,194.082994 C42.6923451,194.082994 52.7331808,193.27524 61.9710508,193.27524 C72.0118865,193.27524 81.6512394,195.29439 91.6923104,194.082994 C99.7250261,180.757644 104.14322,165.009503 104.14322,148.049967 C104.544703,106.054766 76.4300802,71.3281749 37.8726686,60.8294931 Z" id="路径" fill="#5B908E"></path>
                <path d="M134.336363,161.163055 L88.0093026,161.163055 L88.0093026,118.505955 L134.336363,118.505955 C136.753435,118.505955 139.170507,116.474744 139.170507,113.630858 C139.170507,111.193309 137.156359,108.75576 134.336363,108.75576 L83.1751582,108.75576 C80.758086,108.75576 78.3410138,110.786972 78.3410138,113.630858 L78.3410138,165.631815 C78.3410138,168.069364 80.355162,170.506912 83.1751582,170.506912 L134.336363,170.506912 C136.753435,170.506912 139.170507,168.475701 139.170507,165.631815 C138.767819,163.194267 136.753435,161.163055 134.336363,161.163055 Z" id="路径" fill="#2B3139"></path>
                <path d="M127.18894,12.9032258 L128.110599,14.7465438" id="路径" fill="#000000"></path>
                <path d="M209.329866,79.4420741 L208.926691,79.0374385 L208.523279,78.63304 L207.716692,78.2284045 L125.436744,8.24020322 C123.823333,6.62189807 122.209922,5.00359293 120.193335,3.78992333 C117.773337,2.17185522 115.353338,1.36258413 112.529928,0.553550075 C105.673345,-1.06475507 99.2199367,0.958185624 94.3799398,5.40822847 L8.46999459,77.8237689 L7.66340722,78.2284045 L7.25999537,78.63304 L6.85681984,79.0374385 C2.41999846,83.0830829 0,89.5560664 0,96.0288129 C0,107.356475 9.2768183,116.256798 20.5699869,117.470467 L31.8633918,117.470467 L31.8633918,180.985685 C32.2668036,184.222295 33.4768029,187.458668 35.0899776,190.290643 C39.1233871,196.76339 45.5767951,200 52.4333786,200 L164.156719,200 C171.416715,200 177.869886,196.76339 181.903296,190.290643 C183.516707,187.458668 184.323294,184.222295 185.129882,180.985685 L185.129882,151.857615 C185.129882,149.430275 183.113295,147.002936 180.289885,147.002936 C177.869886,147.002936 175.449888,149.025877 175.449888,151.857615 L175.449888,178.962981 C175.046712,180.985685 174.239889,183.008626 173.02989,185.031329 C170.609891,188.672338 166.979893,190.290643 163.349896,190.695042 L52.8367905,190.695042 C49.2067928,190.695042 45.1733833,188.672338 43.1567967,185.031329 C41.9467974,183.008626 41.1399737,180.985685 40.7367982,178.962981 L40.7367982,118.279501 L44.7699714,118.279501 C47.1899699,118.279501 49.6099683,116.256798 49.6099683,113.424823 C49.6099683,110.997484 47.5933817,108.570144 44.7699714,108.570144 L20.5699869,108.570144 C14.1168152,107.76111 9.67999382,102.906432 9.67999382,96.4334485 C9.67999382,91.9834056 11.2934049,87.9377613 14.1168152,84.701388 L100.429936,11.881212 C103.253346,9.85827133 106.479932,9.04923727 110.10993,9.85827133 C112.93334,10.2629069 115.353338,11.4765765 117.369925,13.0948816 L202.069871,84.2967525 C204.893281,87.1287272 206.506692,91.1741345 206.506692,96.0288129 C206.506692,102.501796 202.069871,107.356475 195.616699,108.165509 L171.416715,108.165509 C168.996716,108.165509 166.576718,110.18845 166.576718,113.020187 C166.576718,115.447527 168.593304,117.874866 171.416715,117.874866 L196.019875,117.874866 C207.31328,117.065832 216.589862,108.165509 216.589862,96.4334485 C216.589862,89.9604649 213.766688,83.4877184 209.329866,79.4420741 L209.329866,79.4420741 Z" id="路径" fill="#2B3139"></path>
            </g>
        </g>
    </g>
</svg>