<?xml version="1.0" encoding="UTF-8"?>
<svg width="104px" height="104px" viewBox="0 0 104 104" version="1.1" xmlns="http://www.w3.org/2000/svg" xmlns:xlink="http://www.w3.org/1999/xlink">
    <!-- Generator: Sketch 55.1 (78136) - https://sketchapp.com -->
    <title>appstore</title>
    <desc>Created with Sketch.</desc>
    <g id="页面1" stroke="none" stroke-width="1" fill="none" fill-rule="evenodd">
        <g id="画板" transform="translate(-57.000000, -49.000000)">
            <g id="appstore" transform="translate(57.000000, 49.000000)">
                <rect id="矩形" fill="#3281FF" x="0" y="0" width="104" height="104"></rect>
                <g transform="translate(15.000000, 19.000000)" fill="#FFFFFF" fill-rule="nonzero" id="编组-2">
                    <g transform="translate(0.703950, 0.956634)">
                        <path d="M38.1743326,40.5832402 L26.7720979,40.5832402 L35.3564555,25.7675978 L36.2279638,24.2569832 L42.1106454,14.147486 L43.2436063,12.172067 L45.6838298,7.98882682 C46.7586901,6.15865922 46.7877404,3.80558659 45.5676287,2.07709497 C44.5218186,0.595530726 43.0257292,-2.13162821e-14 41.544165,-2.13162821e-14 C39.8011482,-2.13162821e-14 38.1017069,0.900558659 37.1430476,2.5273743 L36.2715393,4.06703911 L35.3709806,2.5273743 C34.4123214,0.900558659 32.6983549,-2.13162821e-14 30.9698633,-2.13162821e-14 C30.0983549,-2.13162821e-14 29.2268465,0.203351955 28.4134387,0.668156425 C26.0022655,2.06256983 25.1743326,5.18547486 26.5832711,7.59664804 L30.3743326,14.147486 L15.0357851,40.6122905 L5.07153927,40.6122905 C2.02125994,40.6413408 -0.418963525,43.3430168 0.0603660836,46.5240223 C0.438019715,49.0223464 2.7765672,50.7653631 5.3039415,50.7653631 L9.15310351,50.7653631 L20.8894164,50.7363128 L44.3184666,50.7363128 C44.7542208,50.7363128 45.189975,50.547486 45.4514275,50.1988827 C46.7877404,48.4122905 47.7754499,45.6379888 44.5072935,42.7765363 C42.7788018,41.2513966 40.4693046,40.5832402 38.1743326,40.5832402 L38.1743326,40.5832402 Z" id="路径"></path>
                        <path d="M67.1665113,40.5541899 L57.4056175,40.5541899 L44.3475169,18.0256983 C44.1151147,17.6335196 43.5922097,17.5027933 43.2290812,17.7642458 C41.3989136,19.0860335 40.3240532,20.9307263 39.7720979,22.9642458 C38.842489,26.3921788 39.6123214,30.0670391 41.3843884,33.1463687 L44.1877404,38.0122905 L45.6693046,40.5977654 L51.5519862,50.7363128 L52.1620421,51.7530726 L57.8123214,61.5139665 C58.7709806,63.1407821 60.4558968,64.0413408 62.1843884,64.0413408 C63.0558968,64.0413408 63.9564555,63.8089385 64.7698633,63.3441341 C67.1810365,61.9497207 68.0089694,58.8558659 66.6000309,56.4156425 L63.3028242,50.7072626 L67.4134387,50.7072626 C70.463718,50.7072626 72.8894164,47.947486 72.3955616,44.7664804 C71.9888577,42.2826816 69.6793605,40.5541899 67.1665113,40.5541899 L67.1665113,40.5541899 Z M14.3240532,52.0581006 C12.5374611,51.3318436 10.8525449,51.4189944 9.50170687,51.796648 C8.76092474,52 8.15086888,52.5083799 7.77321525,53.1620112 L5.88494709,56.3865922 C4.4614834,58.8268156 5.3039415,61.9206704 7.71511469,63.3150838 C8.52852251,63.7798883 9.42908117,64.0122905 10.3005895,64.0122905 C12.0436063,64.0122905 13.7139974,63.1117318 14.6436063,61.4849162 L16.793327,57.7810056 C17.316232,56.8659218 17.417908,55.7620112 17.0257292,54.7888268 C16.589975,53.6994413 15.7765672,52.6536313 14.3240532,52.0581006 L14.3240532,52.0581006 Z" id="形状"></path>
                    </g>
                </g>
            </g>
        </g>
    </g>
</svg>