<?xml version="1.0" encoding="UTF-8"?>
<svg width="104px" height="104px" viewBox="0 0 104 104" version="1.1" xmlns="http://www.w3.org/2000/svg" xmlns:xlink="http://www.w3.org/1999/xlink">
    <!-- Generator: Sketch 55.1 (78136) - https://sketchapp.com -->
    <title>编组 3</title>
    <desc>Created with Sketch.</desc>
    <g id="页面1" stroke="none" stroke-width="1" fill="none" fill-rule="evenodd">
        <g id="画板" transform="translate(-183.000000, -176.000000)">
            <g id="编组-3" transform="translate(183.000000, 176.000000)">
                <rect id="矩形" fill="#FFFFFF" x="0" y="0" width="104" height="104"></rect>
                <g id="秒表" transform="translate(20.000000, 15.000000)" fill-rule="nonzero">
                    <path d="M59.8908944,15.4103808 C58.5367992,14.0738367 56.3599321,14.0738367 55.0058369,15.4103808 L47.6926185,22.7235991 L52.577676,27.6086566 L59.8908944,20.2954382 C61.2274384,18.941343 61.2274384,16.764476 59.8908944,15.4103808 Z" id="路径" fill="#D8E3F0"></path>
                    <path d="M60.8535381,14.3902658 C59.1706786,12.7094992 56.4444435,12.7094992 54.7615841,14.3902658 L54.3161817,14.8356681 L60.4081358,20.9276222 L60.8535381,20.4822198 C62.5343047,18.7993604 62.5343047,16.0731252 60.8535381,14.3902658 L60.8535381,14.3902658 Z" id="路径" fill="#FCFEFF"></path>
                    <polygon id="路径" fill="#D8E3F0" points="28.0230783 7.66612785 34.91963 7.66612785 34.91963 13.1833692 28.0230783 13.1833692"></polygon>
                    <polygon id="路径" fill="#FCFEFF" points="23.8851472 1.45923129 39.057561 1.45923129 39.057561 7.66612785 23.8851472 7.66612785"></polygon>
                    <path d="M37.6782507,1.45923129 L32.9225036,1.45923129 C33.7160162,1.45923129 34.3592852,2.10250038 34.3592852,2.89601293 L34.3592852,6.34428879 C34.3592852,7.13780135 33.7160162,7.78107043 32.9225036,7.78107043 L37.6638829,7.78107043 C38.4573955,7.78107043 39.1006645,7.13780135 39.1006645,6.34428879 L39.1006645,2.89601293 C39.1006645,2.10807764 38.4661466,1.46711066 37.6782507,1.45923129 L37.6782507,1.45923129 Z" id="路径" fill="#D8E3F0"></path>
                    <path d="M1.31330819,43.1402658 C1.31330819,53.914698 7.06139909,63.870684 16.3923311,69.2579001 C25.723263,74.6451163 37.2194453,74.6451163 46.5503773,69.2579001 C55.8813093,63.870684 61.6294002,53.914698 61.6294002,43.1402658 C61.6294002,26.4844369 48.1271831,12.9822198 31.4713542,12.9822198 C14.8155253,12.9822198 1.31330819,26.4844369 1.31330819,43.1402658 Z" id="路径" fill="#FFC670"></path>
                    <path d="M31.485722,53.6144037 C21.2407539,53.624831 11.0995794,51.5623849 1.67250362,47.5511853 C3.98028847,62.2247772 16.6245767,73.0358638 31.4785381,73.0358638 C46.3324995,73.0358638 58.9767877,62.2247772 61.2845726,47.5511853 C51.860299,51.5551816 41.7252976,53.6173661 31.485722,53.6144037 L31.485722,53.6144037 Z" id="路径" fill="#FFA742"></path>
                    <path d="M7.34779095,43.1402658 C7.34779095,51.7587849 11.945716,59.7226251 19.4095725,64.0318847 C26.873429,68.3411443 36.0692794,68.3411443 43.5331359,64.0318847 C50.9969924,59.7226251 55.5949174,51.7587849 55.5949174,43.1402658 C55.5949174,29.8171897 44.7944303,19.0167025 31.4713542,19.0167025 C18.1482781,19.0167025 7.34779095,29.8171897 7.34779095,43.1402658 Z" id="路径" fill="#FCFEFF"></path>
                    <path d="M18.5403197,43.1402658 C18.5403197,50.2818789 24.329741,56.0713003 31.4713541,56.0713003 C38.6129673,56.0713003 44.4023886,50.2818789 44.4023886,43.1402658 C44.4023886,35.9986526 38.6129673,30.2092313 31.4713541,30.2092313 C24.329741,30.2092313 18.5403197,35.9986526 18.5403197,43.1402658 Z" id="路径" fill="#D8E3F0"></path>
                    <path d="M34.8908944,39.7207256 L28.0661817,46.5454382 L17.1179059,32.2063578 C16.4178365,31.2494761 16.5216184,29.9247304 17.3621588,29.0885416 C18.2003724,28.2399029 19.5347055,28.1358494 20.4943427,28.8442888 L34.8908944,39.7207256 Z" id="路径" fill="#F6716F"></path>
                    <path d="M25.2644576,43.1402658 C25.2644576,45.3577764 26.4474853,47.4068407 28.3679058,48.515596 C30.2883263,49.6243513 32.654382,49.6243513 34.5748025,48.515596 C36.495223,47.4068407 37.6782507,45.3577764 37.6782507,43.1402658 C37.6782507,39.7122915 34.8993284,36.9333692 31.4713541,36.9333692 C28.0433798,36.9333692 25.2644576,39.7122915 25.2644576,43.1402658 L25.2644576,43.1402658 Z" id="路径" fill="#D8E3F0"></path>
                    <path d="M28.4110093,43.1402658 C28.4110093,44.2336217 28.9943077,45.2439243 29.9411817,45.7906022 C30.8880557,46.3372802 32.0546526,46.3372802 33.0015266,45.7906022 C33.9484006,45.2439243 34.531699,44.2336217 34.531699,43.1402658 C34.531699,41.450084 33.1615359,40.0799209 31.4713541,40.0799209 C29.7811724,40.0799209 28.4110093,41.450084 28.4110093,43.1402658 L28.4110093,43.1402658 Z" id="路径" fill="#FCFEFF"></path>
                    <path d="M31.485722,28.2408405 C32.2792346,28.2408405 32.9225036,27.5975715 32.9225036,26.8040589 L32.9225036,24.2896911 C32.9225036,23.4961785 32.2792346,22.8529095 31.485722,22.8529095 C30.6922094,22.8529095 30.0489403,23.4961785 30.0489403,24.2896911 L30.0489403,26.8040589 C30.0489403,27.5975715 30.6922094,28.2408405 31.485722,28.2408405 L31.485722,28.2408405 Z M20.939745,55.6977371 C21.4968191,55.1373384 21.4968191,54.2322736 20.939745,53.671875 C20.6699654,53.3998741 20.30273,53.2468774 19.91963,53.2468774 C19.5365301,53.2468774 19.1692947,53.3998741 18.8995151,53.671875 L17.1179059,55.4534842 C16.554512,56.0168782 16.554512,56.9303202 17.1179059,57.4937141 C17.6812999,58.057108 18.5947419,58.057108 19.1581358,57.4937141 L20.939745,55.6977371 Z M16.5719289,43.125898 C16.5719289,42.7448398 16.4205541,42.3793888 16.1511053,42.10994 C15.8816565,41.8404912 15.5162054,41.6891163 15.1351472,41.6891163 L12.6207795,41.6891163 C12.107384,41.6889921 11.6329339,41.9628139 11.3762003,42.4074068 C11.1194667,42.8519996 11.1194667,43.3997964 11.3762003,43.8443892 C11.6329339,44.288982 12.107384,44.5628038 12.6207795,44.5626796 L15.1351472,44.5626796 C15.9286598,44.5626796 16.5719289,43.9194106 16.5719289,43.125898 L16.5719289,43.125898 Z M31.485722,58.0396911 C30.6922094,58.0396911 30.0489403,58.6829601 30.0489403,59.4764727 L30.0489403,61.9908405 C30.0489403,62.7843531 30.6922094,63.4276222 31.485722,63.4276222 C32.2792346,63.4276222 32.9225036,62.7843531 32.9225036,61.9908405 L32.9225036,59.4764727 C32.9225036,58.6829601 32.2792345,58.0396911 31.485722,58.0396911 L31.485722,58.0396911 Z M44.0431933,53.671875 C43.4827946,53.1148009 42.5777299,53.1148009 42.0173312,53.671875 C41.4602571,54.2322736 41.4602571,55.1373384 42.0173312,55.6977371 L43.7845726,57.4937141 C44.0553818,57.7746794 44.4288257,57.9334065 44.8190553,57.9334065 C45.209285,57.9334065 45.5827289,57.7746794 45.8535381,57.4937141 C46.4106122,56.9333154 46.4106122,56.0282506 45.8535381,55.467852 L44.0431933,53.671875 Z M43.7845726,28.7580819 L42.0173312,30.5396911 C41.4602571,31.1000898 41.4602571,32.0051545 42.0173312,32.5655532 C42.5777299,33.1226273 43.4827946,33.1226273 44.0431933,32.5655532 L45.8535381,30.8270474 C46.4248671,30.2557184 46.4248671,29.329411 45.8535381,28.7580819 C45.282209,28.1867529 44.3559016,28.1867529 43.7845726,28.7580819 Z" id="形状" fill="#3D3D63"></path>
                    <path d="M59.8908944,22.3213003 C60.4207091,22.5298673 61.0237016,22.4058875 61.4282507,22.0052084 L61.873653,21.5454382 C63.4452628,20.1214297 64.1049077,17.9476292 63.5896969,15.89037 C63.0744861,13.8331108 61.4681642,12.226789 59.410905,11.7115782 C57.3536458,11.1963674 55.1798454,11.8560124 53.7558369,13.4276222 L53.2960668,13.8730244 C52.9151719,14.2900946 52.8139771,14.8916418 53.0374461,15.4103808 L50.5230783,17.9247485 C46.3860391,14.7920193 41.5395901,12.7290706 36.4138829,11.9190015 L36.4138829,9.04543819 L37.735722,9.04543819 C39.3227471,9.04543819 40.6092852,7.75890013 40.6092852,6.171875 L40.6092852,2.89601293 C40.6092852,1.3089878 39.3227471,0.0224497407 37.735722,0.0224497407 L25.2644576,0.0224497407 C23.6774325,0.0224497407 22.3908944,1.3089878 22.3908944,2.89601293 L22.3908944,6.34428879 C22.3908944,7.93131392 23.6774325,9.21785198 25.2644576,9.21785198 L26.5862967,9.21785198 L26.5862967,12.0914153 C12.6466216,14.3392092 1.88835138,25.5594943 0.228340649,39.581316 C-1.43167008,53.6031377 6.40923415,67.0253356 19.4386974,72.4659428 C32.4681606,77.9065501 47.5257308,74.0458824 56.3300159,63.0072374 C65.1343009,51.9685923 65.5497163,36.4295252 57.3477909,24.9362428 L59.8908944,22.3213003 Z M59.8908944,15.4534842 C60.7971049,16.3573387 60.9962829,17.7515851 60.3794002,18.8730244 L56.4282507,14.9649784 C57.54969,14.3480956 58.9439364,14.5472737 59.8477909,15.4534842 L59.8908944,15.4534842 Z M54.9627334,17.5368175 L57.8362967,20.4103808 L55.5661817,22.6804957 C54.6796341,21.6538943 53.7192199,20.6934801 52.6926185,19.8069325 L54.9627334,17.5368175 Z M25.3219289,6.2868175 L25.3219289,2.89601293 L37.6782507,2.89601293 L37.6782507,6.22934629 L25.3219289,6.2868175 Z M33.4828484,9.16038078 L33.4828484,11.6603808 C32.8219289,11.6603808 32.1466416,11.5885417 31.4713541,11.5885416 C30.7960667,11.5885416 30.1351472,11.5885416 29.4598599,11.6603808 L29.4598599,9.10290948 L33.4828484,9.16038078 Z M31.485722,71.8615302 C15.6154706,71.8615302 2.75008983,58.9961494 2.75008983,43.125898 C2.75008983,27.2556466 15.6154706,14.3902659 31.485722,14.3902659 C47.3559734,14.3902659 60.2213541,27.2556466 60.2213541,43.125898 C60.2213541,58.9961494 47.3559734,71.8615302 31.485722,71.8615302 L31.485722,71.8615302 Z" id="形状" fill="#3D3D63"></path>
                    <path d="M31.485722,17.5655491 C21.1391036,17.5597421 11.8083182,23.78869 7.84615391,33.3466082 C3.88398964,42.9045264 6.07114024,53.9081494 13.3873054,61.2243146 C20.7034706,68.5404798 31.7070936,70.7276304 41.2650118,66.7654661 C50.82293,62.8033018 57.0518779,53.4725164 57.0460709,43.125898 C57.022338,29.0191499 45.5924701,17.589282 31.485722,17.5655491 Z M31.485722,65.827052 C22.3026589,65.8328595 14.0205875,60.3055884 10.5023535,51.823212 C6.9841194,43.3408355 8.92278532,33.5743107 15.414137,27.0788481 C21.9054886,20.5833854 31.670784,18.6385366 40.1553862,22.1513997 C48.6399884,25.6642627 54.1725036,33.9428331 54.1725036,43.125898 C54.1725036,55.6577878 44.0176093,65.8191159 31.485722,65.827052 Z" id="形状" fill="#3D3D63"></path>
                    <path d="M39.1150323,43.125898 C39.116909,39.0084455 35.8455511,35.6352554 31.7299748,35.5109554 L21.4282507,27.6804957 C19.8953536,26.5396221 17.7576805,26.6954998 16.4065021,28.0466781 C15.0553238,29.3978565 14.8994461,31.5355297 16.0403197,33.0684267 L23.8564116,43.3701509 C23.9238602,47.5837026 27.3942967,50.9447833 31.6078484,50.8773348 C35.8214002,50.8098862 39.1824809,47.3394498 39.1150323,43.125898 Z M18.3391703,31.3442888 C18.0510622,30.9571939 18.0940639,30.4166008 18.439745,30.0799209 C18.7696512,29.7445315 19.2955746,29.7017238 19.6753772,29.9793463 L28.051814,36.3299209 C26.5958437,37.0676072 25.4130634,38.2503875 24.6753772,39.7063578 L18.3391703,31.3442888 Z M26.7012175,43.125898 C26.7091751,40.4951938 28.8454141,38.3675298 31.476129,38.3701726 C34.1068438,38.3728203 36.2387997,40.5047762 36.2414474,43.135491 C36.2440902,45.7662059 34.1164262,47.9024449 31.485722,47.9104025 C30.2156276,47.9142122 28.9964483,47.4113646 28.0983518,46.5132682 C27.2002554,45.6151717 26.6974078,44.3959924 26.7012175,43.125898 L26.7012175,43.125898 Z M46.3707795,43.125898 C46.3707795,43.9194105 47.0140485,44.5626796 47.807561,44.5626796 L50.3219289,44.5626796 C51.1153056,44.5624875 51.7583627,43.9192747 51.7583627,43.125898 C51.7583627,42.3325212 51.1153056,41.6893084 50.3219289,41.6891164 L47.807561,41.6891164 C47.0140485,41.6891164 46.3707795,42.3323855 46.3707795,43.125898 L46.3707795,43.125898 Z" id="形状" fill="#3D3D63"></path>
                </g>
            </g>
        </g>
    </g>
</svg>