<?xml version="1.0" encoding="UTF-8"?>
<svg width="104px" height="104px" viewBox="0 0 104 104" version="1.1" xmlns="http://www.w3.org/2000/svg" xmlns:xlink="http://www.w3.org/1999/xlink">
    <!-- Generator: Sketch 55.1 (78136) - https://sketchapp.com -->
    <title>编组</title>
    <desc>Created with Sketch.</desc>
    <g id="页面1" stroke="none" stroke-width="1" fill="none" fill-rule="evenodd">
        <g id="画板" transform="translate(-311.000000, -49.000000)">
            <g id="编组" transform="translate(311.000000, 49.000000)">
                <rect id="矩形" fill="#76C2AF" x="0" y="0" width="104" height="104"></rect>
                <g id="骰子" transform="translate(15.000000, 10.000000)" fill-rule="nonzero">
                    <path d="M67.3187033,18.9611412 L43.5622129,5.245002 C40.1105101,3.25182959 34.1445813,3.25182959 30.6928786,5.245002 L6.93651175,18.9611412 C3.38845486,21.0092849 0.501041667,26.0092014 0.501041667,30.1070947 L0.501041667,57.5376436 C0.501041667,61.6356604 3.38845486,66.6354534 6.93651175,68.6835971 L30.6930021,82.3997362 C32.4188535,83.3962607 34.7039296,83.9453559 37.1276075,83.9453559 C39.5514089,83.9453559 41.8363615,83.3962607 43.5622129,82.3997362 L67.3187033,68.6835971 C70.8667601,66.6354534 73.7541733,61.6355369 73.7541733,57.5376436 L73.7541733,30.1072182 C73.7541733,26.0092014 70.8667601,21.0094084 67.3187033,18.9611412 L67.3187033,18.9611412 Z" id="路径" fill="#231F20"></path>
                    <path d="M43.1294838,2.53040865 C39.8284889,0.62457265 34.4267261,0.62457265 31.1257312,2.53040865 L7.36961138,16.2460537 C4.06861645,18.1518897 1.36773504,22.830008 1.36773504,26.64168 L1.36773504,54.0729701 C1.36773504,57.8846421 4.06861645,62.5627604 7.36961138,64.4685964 L31.1257312,78.1842415 C34.4267261,80.0900775 39.8284889,80.0900775 43.1296074,78.1842415 L66.8857272,64.4685964 C70.1867221,62.5627604 72.8876035,57.8847656 72.8876035,54.0729701 L72.8876035,26.64168 C72.8876035,22.830008 70.1867221,18.1518897 66.8857272,16.2460537 L43.1294838,2.53040865 Z" id="路径" fill="#E0E0D1"></path>
                    <path d="M37.1276075,80.4795706 C34.7038061,80.4795706 32.41873,79.9313401 30.6930021,78.9330863 L6.93651175,65.2178118 C3.38845486,63.1705329 0.501041667,58.1706163 0.501041667,54.0725995 L0.501041667,26.6420506 C0.501041667,22.5440338 3.38845486,17.5442408 6.93651175,15.4968383 L30.6930021,1.78156384 C34.1447049,-0.21494391 40.1106337,-0.21494391 43.5623364,1.78156384 L67.3188268,15.4968383 C70.8668837,17.5441173 73.7542969,22.5440338 73.7542969,26.6420506 L73.7542969,54.0725995 C73.7542969,58.1706163 70.8668837,63.1704093 67.3188268,65.2178118 L43.5622129,78.9330863 C41.8363615,79.9313401 39.5514089,80.4795706 37.1276075,80.4795706 L37.1276075,80.4795706 Z M37.1276075,1.9676015 C35.0032452,1.9676015 33.0262553,2.43454861 31.5592014,3.28061231 L7.80283454,16.9960103 C4.78435497,18.7387854 2.23368723,23.1565004 2.23368723,26.6420506 L2.23368723,54.0725995 C2.23368723,57.5581497 4.78435497,61.9758647 7.80283454,63.7186398 L31.5593249,77.4339143 C34.4931858,79.1259181 39.7621528,79.1259181 42.6960136,77.4339143 L66.452504,63.7186398 C69.4709836,61.9758647 72.0216513,57.5581497 72.0216513,54.0725995 L72.0216513,26.6420506 C72.0216513,23.1565004 69.4709836,18.7387854 66.452504,16.9960103 L42.6958901,3.28061231 C41.2289597,2.43467214 39.2518463,1.9676015 37.1276075,1.9676015 Z" id="形状" fill="#E0E0D1"></path>
                    <path d="M37.1276075,36.5892595 C35.181871,36.5892595 33.3105001,36.152701 31.9924245,35.3921207 L8.23593416,21.6761051 C7.21309762,21.085627 6.62595486,20.3698885 6.62595486,19.7108507 C6.62681958,19.0535423 7.21309762,18.3369391 8.23593416,17.7473257 L31.9924245,4.03118657 C33.3105001,3.26974159 35.181871,2.83330662 37.1276075,2.83330662 C39.073344,2.83330662 40.9447149,3.26986512 42.2627905,4.03044538 L66.0192808,17.7474493 C67.0421174,18.3370626 67.6283954,19.0536659 67.6292601,19.7109742 C67.6292601,20.370012 67.0421174,21.0857505 66.0192808,21.6762286 L42.2627905,35.3913795 C40.9447149,36.152701 39.073344,36.5892595 37.1276075,36.5892595 L37.1276075,36.5892595 Z M33.5039497,77.2648003 C32.9845019,77.2648003 32.3619057,77.0643096 31.7036091,76.6844518 L7.94724225,62.9674479 C5.16310096,61.3609275 2.81119458,57.2873698 2.81119458,54.0725995 L2.81119458,26.6420506 C2.81119458,25.8764056 2.96770833,24.0955829 4.41437967,24.0955829 C4.93296274,24.0955829 5.55568243,24.2969384 6.21472022,24.6776609 L29.9712106,38.3929354 C32.7544872,40.0003205 35.1063936,44.0737547 35.1063936,47.2877838 L35.1063936,74.7191974 C35.1063936,75.6151676 34.912697,76.3503005 34.5598925,76.7893296 C34.2991186,77.1142161 33.9632378,77.2648003 33.5039497,77.2648003 L33.5039497,77.2648003 Z M40.4633146,77.2648003 C39.0166433,77.2648003 38.8601295,75.4848424 38.8601295,74.7191974 L38.8601295,47.2877838 C38.8601295,44.0738782 41.2120359,40.0003205 43.9953125,38.3920706 L67.7518029,24.6776609 C68.4108407,24.2969384 69.0334368,24.0955829 69.5521434,24.0955829 C70.9988148,24.0955829 71.1553285,25.8764056 71.1553285,26.6420506 L71.1553285,54.0725995 C71.1553285,57.2873698 68.8034221,61.360804 66.0192808,62.9674479 L42.2627905,76.6835871 C41.6046174,77.0643096 40.9818977,77.2648003 40.4633146,77.2648003 L40.4633146,77.2648003 Z" id="形状" fill="#FFFFFF"></path>
                    <path d="M37.1276075,22.1650407 C34.9364149,22.1650407 33.084562,21.0415264 33.084562,19.7115919 C33.084562,18.3816573 34.9364149,17.2574018 37.1276075,17.2574018 C39.3186765,17.2574018 41.170653,18.3817808 41.170653,19.7115919 C41.170653,21.0414029 39.3186765,22.1650407 37.1276075,22.1650407 Z M7.92599493,58.3212006 C6.59606036,58.3212006 5.47254607,56.6737914 5.47254607,54.7236078 C5.47254607,52.7735477 6.59606036,51.1252738 7.92599493,51.1252738 C9.25592949,51.1252738 10.3794438,52.7734241 10.3794438,54.7236078 C10.3794438,56.6737914 9.25592949,58.3212006 7.92599493,58.3212006 Z M65.4628973,58.3212006 C64.1329627,58.3212006 63.0094485,56.6737914 63.0094485,54.7236078 C63.0094485,52.7735477 64.1329627,51.1252738 65.4628973,51.1252738 C66.7928319,51.1252738 67.9163462,52.7734241 67.9163462,54.7236078 C67.9162226,56.6737914 66.7927083,58.3212006 65.4628973,58.3212006 Z M7.92599493,37.6382846 C6.59606036,37.6382846 5.47254607,35.9908754 5.47254607,34.0406918 C5.47254607,32.0906317 6.59606036,30.4423578 7.92599493,30.4423578 C9.25592949,30.4423578 10.3794438,32.0905081 10.3794438,34.0406918 C10.3794438,35.9908754 9.25592949,37.6382846 7.92599493,37.6382846 Z M28.3207131,50.9581364 C26.9907786,50.9581364 25.8672643,49.309986 25.8672643,47.3598024 C25.8672643,45.4097423 26.9907786,43.7614683 28.3207131,43.7614683 C29.6506477,43.7614683 30.7749032,45.4096187 30.7749032,47.3598024 C30.7750267,49.309986 29.6506477,50.9581364 28.3207131,50.9581364 Z M45.7189403,50.9581364 C44.3890057,50.9581364 43.2654915,49.309986 43.2654915,47.3598024 C43.2654915,45.4097423 44.3890057,43.7614683 45.7189403,43.7614683 C47.0488749,43.7614683 48.1731303,45.4096187 48.1731303,47.3598024 C48.1732539,49.309986 47.0488749,50.9581364 45.7189403,50.9581364 Z M28.3207131,70.052938 C26.9907786,70.052938 25.8672643,68.4047877 25.8672643,66.454604 C25.8672643,64.5044204 26.9907786,62.85627 28.3207131,62.85627 C29.6506477,62.85627 30.7749032,64.5044204 30.7749032,66.454604 C30.7749032,68.4047877 29.6506477,70.052938 28.3207131,70.052938 Z" id="形状" fill="#4F5D73"></path>
                </g>
            </g>
        </g>
    </g>
</svg>