<?xml version="1.0" encoding="UTF-8"?>
<svg width="24px" height="24px" viewBox="0 0 24 24" version="1.1" xmlns="http://www.w3.org/2000/svg" xmlns:xlink="http://www.w3.org/1999/xlink">
    <title>invite备份</title>
    <g id="Agora" stroke="none" stroke-width="1" fill="none" fill-rule="evenodd">
        <g id="注册按钮" transform="translate(-12.000000, -10.000000)" fill="#FFFFFF" fill-rule="nonzero">
            <g id="invite备份" transform="translate(12.000000, 10.000000)">
                <path d="M4.9,19.3816425 C4.9,19.7236715 5.168125,20 5.5,20 L10.8625,20 L10.8625,12.7342995 L4.9,12.7342995 L4.9,19.3816425 Z M12.1375,20 L17.5,20 C17.831875,20 18.1,19.7236715 18.1,19.3816425 L18.1,12.7342995 L12.1375,12.7342995 L12.1375,20 Z M18.4,8.09661836 L15.6325,8.09661836 C15.8875,7.68309179 16.0375,7.19227053 16.0375,6.66666667 C16.0375,5.19613527 14.876875,4 13.45,4 C12.67375,4 11.974375,4.35555556 11.5,4.91594203 C11.025625,4.35555556 10.32625,4 9.55,4 C8.123125,4 6.9625,5.19613527 6.9625,6.66666667 C6.9625,7.19227053 7.110625,7.68309179 7.3675,8.09661836 L4.6,8.09661836 C4.268125,8.09661836 4,8.37294686 4,8.71497585 L4,11.4202899 L10.8625,11.4202899 L10.8625,8.09661836 L12.1375,8.09661836 L12.1375,11.4202899 L19,11.4202899 L19,8.71497585 C19,8.37294686 18.731875,8.09661836 18.4,8.09661836 Z M10.8625,8.01932367 L9.55,8.01932367 C8.82625,8.01932367 8.2375,7.41256039 8.2375,6.66666667 C8.2375,5.92077295 8.82625,5.31400966 9.55,5.31400966 C10.27375,5.31400966 10.8625,5.92077295 10.8625,6.66666667 L10.8625,8.01932367 Z M13.45,8.01932367 L12.1375,8.01932367 L12.1375,6.66666667 C12.1375,5.92077295 12.72625,5.31400966 13.45,5.31400966 C14.17375,5.31400966 14.7625,5.92077295 14.7625,6.66666667 C14.7625,7.41256039 14.17375,8.01932367 13.45,8.01932367 Z" id="形状"></path>
            </g>
        </g>
    </g>
</svg>