<?xml version="1.0" encoding="UTF-8"?>
<svg width="104px" height="104px" viewBox="0 0 104 104" version="1.1" xmlns="http://www.w3.org/2000/svg" xmlns:xlink="http://www.w3.org/1999/xlink">
    <!-- Generator: Sketch 55.1 (78136) - https://sketchapp.com -->
    <title>编组 4</title>
    <desc>Created with Sketch.</desc>
    <g id="页面1" stroke="none" stroke-width="1" fill="none" fill-rule="evenodd">
        <g id="画板" transform="translate(-58.000000, -176.000000)">
            <g id="编组-4" transform="translate(58.000000, 176.000000)">
                <rect id="矩形" fill="#FFF1D9" x="0" y="0" width="104" height="104"></rect>
                <g id="投票" transform="translate(16.000000, 15.000000)" fill-rule="nonzero">
                    <path d="M65.509073,74.9067483 L7.04565843,74.9067483 C3.18816524,74.9067483 0.0543779331,71.7923111 0.0306490385,67.9348909 L0.0306490385,19.1337652 C0.0543779331,15.276345 3.18816524,12.1619078 7.04565843,12.1619078 L65.509073,12.1619078 C69.3665662,12.1619078 72.5003535,15.276345 72.5240824,19.1337652 L72.5240824,67.9348909 C72.5003535,71.7923111 69.3665662,74.9067483 65.509073,74.9067483 L65.509073,74.9067483 Z" id="路径" fill="#725023"></path>
                    <path d="M15.7435947,35.946148 L15.7435947,4.91050068 C15.6731088,2.31683037 17.713073,0.154401157 20.3064464,0.0737276893 L52.2464089,0.0737276893 C54.8397823,0.154401157 56.8797466,2.31683037 56.8092607,4.91050068 L56.8092607,35.9442718 L15.7435947,35.946148 L15.7435947,35.946148 Z" id="路径" stroke="#725023" stroke-width="2" fill="#FFDCA3"></path>
                    <path d="M43.12821,14.0099379 L35.1488479,21.9874238 L31.7285853,18.5671611 C30.774377,17.6833222 29.2922387,17.7116835 28.3725419,18.6313804 C27.452845,19.5510772 27.4244837,21.0332155 28.3083226,21.9874238 L33.4340261,27.1131273 C34.3796171,28.054966 35.910574,28.054966 36.8542888,27.1131273 L46.5484727,17.4189435 C47.0013702,16.967325 47.2559132,16.3540307 47.2559132,15.7144407 C47.2559132,15.0748506 47.0013702,14.4615563 46.5484727,14.0099379 C45.6031617,13.067468 44.073521,13.067468 43.12821,14.0099379 L43.12821,14.0099379 Z" id="路径" fill="#725023"></path>
                </g>
            </g>
        </g>
    </g>
</svg>