<?xml version="1.0" encoding="UTF-8"?>
<svg width="104px" height="104px" viewBox="0 0 104 104" version="1.1" xmlns="http://www.w3.org/2000/svg" xmlns:xlink="http://www.w3.org/1999/xlink">
    <!-- Generator: Sketch 55.1 (78136) - https://sketchapp.com -->
    <title>vscode</title>
    <desc>Created with Sketch.</desc>
    <g id="页面1" stroke="none" stroke-width="1" fill="none" fill-rule="evenodd">
        <g id="画板" transform="translate(-175.000000, -49.000000)">
            <g id="vscode" transform="translate(175.000000, 49.000000)">
                <rect id="矩形" fill="#FFFFFF" x="0" y="0" width="104" height="104"></rect>
                <g id="file_type_vscode" transform="translate(15.000000, 15.000000)" fill-rule="nonzero">
                    <path d="M71.3838029,7.80936726 L56.1464368,0.457929185 C54.382716,-0.39426301 52.2740635,-0.035172029 50.890259,1.35302503 L1.01074359,46.9234668 C-0.249486329,48.0694033 -0.344136455,50.0221342 0.799333728,51.2850729 C0.865399311,51.3565746 0.931464895,51.4254282 1.00281572,51.4889853 L5.07509828,55.1964829 C6.17308814,56.1979069 7.8278653,56.2714101 9.00996442,55.3712649 L69.0900059,9.71608031 C70.0156504,9.012191 71.2592514,8.89438645 72.3001184,9.41199093 C73.3409854,9.92959541 74,10.9932985 74,12.1577323 L74,11.980302 C74,10.2017911 72.9830135,8.58059797 71.3838029,7.80936726 Z" id="路径" fill="#0065A9"></path>
                    <path d="M71.3838029,66.1902413 L56.1464368,73.5437649 C54.3823656,74.3934035 52.2752146,74.0345957 50.890259,72.6487375 L1.01074359,27.0791343 C-0.249486329,25.9332854 -0.344136455,23.980704 0.799333728,22.7178619 C0.865399311,22.6463656 0.931464895,22.5775174 1.00281572,22.5139651 L5.07509828,18.8067512 C6.17437333,17.8010336 7.83428772,17.727456 9.01789229,18.6319825 L69.0900059,64.2836741 C70.0156504,64.9875095 71.2592514,65.1053051 72.3001184,64.5877402 C73.3409854,64.0701753 74,63.0065536 74,61.8422089 L74,62.0328656 C73.9941989,63.8062741 72.9782847,65.4206543 71.3838029,66.1902413 L71.3838029,66.1902413 Z" id="路径" fill="#007ACC"></path>
                    <path d="M57.0115441,73.5420106 C55.3329523,74.3949162 53.3279049,74.0347287 52.0100583,72.6435417 C52.7483588,73.4138277 53.851539,73.6411692 54.8094763,73.2204409 C55.7674136,72.7997126 56.3934062,71.8129144 56.3979883,70.7163525 L56.3979883,3.28333914 C56.3988504,2.18135621 55.7710957,1.1875474 54.8079131,0.766064997 C53.8447305,0.34458259 52.7361787,0.578594996 52,1.35880816 C53.3168952,-0.0340291718 55.3224869,-0.39538037 57.0014859,0.457681091 L71.4979997,7.82618918 C73.0246158,8.59651996 73.9975831,10.2246077 74,12.0128415 L74,61.9868502 C74.0004052,63.7736263 73.0315751,65.4023681 71.508058,66.1761607 L57.0115441,73.5420106 Z" id="路径" fill="#1F9CF0"></path>
                </g>
            </g>
        </g>
    </g>
</svg>