<?xml version="1.0" standalone="no"?><!DOCTYPE svg PUBLIC "-//W3C//DTD SVG 1.1//EN" "http://www.w3.org/Graphics/SVG/1.1/DTD/svg11.dtd"><svg t="1578303772896" class="icon" viewBox="0 0 1024 1024" version="1.1" xmlns="http://www.w3.org/2000/svg" p-id="5041" xmlns:xlink="http://www.w3.org/1999/xlink" width="32" height="32"><defs><style type="text/css"></style></defs><path d="M955.723086 135.902107H697.568106V86.260702A86.359075 86.359075 0 0 0 611.307403 0H407.023861a86.359075 86.359075 0 0 0-86.260703 86.260702v49.641405H68.276914A27.249282 27.249282 0 0 0 41.039928 163.15139v4.537448a27.236986 27.236986 0 0 0 27.236986 27.236986h81.674068V937.739298a86.359075 86.359075 0 0 0 86.260702 86.260702h551.576632a86.359075 86.359075 0 0 0 86.260702-86.260702V194.925824h81.674068A27.236986 27.236986 0 0 0 982.960072 167.688838v-4.537448a27.249282 27.249282 0 0 0-27.236986-27.249283zM379.786875 86.260702A27.261579 27.261579 0 0 1 407.023861 59.023717h204.283542a27.273876 27.273876 0 0 1 27.236986 27.236985v49.641405H379.786875zM815.025302 937.739298a27.273876 27.273876 0 0 1-27.236986 27.236985H236.211684a27.273876 27.273876 0 0 1-27.236986-27.236985V194.925824h606.050604z" fill="#ffffff" p-id="5042"></path><path d="M293.526172 303.28353l59.023717 0 0 590.237166-59.023717 0 0-590.237166Z" fill="#ffffff" p-id="5043"></path><path d="M479.647625 303.28353l59.023717 0 0 590.237166-59.023717 0 0-590.237166Z" fill="#ffffff" p-id="5044"></path><path d="M665.781375 303.28353l59.023717 0 0 590.237166-59.023717 0 0-590.237166Z" fill="#ffffff" p-id="5045"></path></svg>