<?xml version="1.0" encoding="UTF-8"?>
<svg width="31px" height="27px" viewBox="0 0 31 27" version="1.1" xmlns="http://www.w3.org/2000/svg" xmlns:xlink="http://www.w3.org/1999/xlink">
    <!-- Generator: Sketch 55.1 (78136) - https://sketchapp.com -->
    <title>video (1)</title>
    <desc>Created with Sketch.</desc>
    <g id="页面1" stroke="none" stroke-width="1" fill="none" fill-rule="evenodd">
        <g id="video-(1)" fill="#2C2C2C" fill-rule="nonzero">
            <path d="M26.6752281,26.0835088 L3.75263158,26.0835088 C1.6859649,26.0835088 0,24.3257544 0,22.1546667 L0,3.93101754 C0,1.76645615 1.67943859,0 3.75263158,0 L26.6752281,0 C28.7418947,0 30.4300351,1.75992983 30.4300351,3.93101754 L30.4300351,22.1546667 C30.4213334,24.3170526 28.7418947,26.0835088 26.6752281,26.0835088 Z M3.75263158,1.42491227 C2.43214036,1.42491227 1.35529825,2.5539649 1.35529825,3.93754385 L1.35529825,22.161193 C1.35529825,23.5447719 2.43214036,24.6716491 3.75263158,24.6716491 L26.6752281,24.6716491 C27.9957193,24.6716491 29.0747368,23.5447719 29.0747368,22.161193 L29.0747368,3.93101754 C29.0747368,2.54743859 27.9957193,1.41838596 26.6752281,1.41838596 L3.75263158,1.41838596 L3.75263158,1.42491227 Z" id="形状"></path>
            <path d="M5.02743859,26.0769825 C4.6455113,26.0663065 4.34356409,25.7497959 4.3508772,25.3677895 L4.3508772,0.709192991 C4.3508772,0.317614044 4.65543859,0 5.02743859,0 C5.41022289,0.00950301776 5.71347279,0.326360288 5.70617543,0.709192991 L5.70617543,25.3677895 C5.70617543,25.7593684 5.40814033,26.0769825 5.02743859,26.0769825 L5.02743859,26.0769825 Z M25.0153684,26.0769825 C24.6334411,26.0663066 24.3314939,25.749796 24.338807,25.3677895 L24.338807,0.709192991 C24.338807,0.317614044 24.6433684,0 25.0153684,0 C25.3981527,0.00950301776 25.7014026,0.326360288 25.6941053,0.709192991 L25.6941053,25.3677895 C25.7014026,25.7506222 25.3981527,26.0674794 25.0153684,26.0769825 L25.0153684,26.0769825 Z" id="形状"></path>
            <path d="M4.62063158,7.94470175 L0.600421053,7.94470175 C0.269754377,7.94470175 0,7.62491227 0,7.23550878 C0,6.84392983 0.269754377,6.52631579 0.600421053,6.52631579 L4.62063158,6.52631579 C4.95129825,6.52631579 5.22105263,6.84610526 5.22105263,7.23550878 C5.22105263,7.62708773 4.95782457,7.94470175 4.62063158,7.94470175 Z M4.62063158,13.5072983 L0.600421053,13.5072983 C0.269754377,13.5072983 0,13.1875088 0,12.7981053 C0,12.4065263 0.269754377,12.0889123 0.600421053,12.0889123 L4.62063158,12.0889123 C4.95129825,12.0889123 5.22105263,12.4065263 5.22105263,12.7981053 C5.22105263,13.1875088 4.95782457,13.5072983 4.62063158,13.5072983 L4.62063158,13.5072983 Z M4.62063158,19.770386 L0.600421053,19.770386 C0.269754377,19.770386 0,19.4505965 0,19.061193 C0,18.669614 0.269754377,18.352 0.600421053,18.352 L4.62063158,18.352 C4.95129825,18.352 5.22105263,18.6717895 5.22105263,19.061193 C5.22105263,19.4527719 4.95782457,19.770386 4.62063158,19.770386 L4.62063158,19.770386 Z M29.3705965,7.94470175 L25.0175439,7.94470175 C24.6585965,7.94470175 24.3670877,7.62491227 24.3670877,7.23550878 C24.3670877,6.84392983 24.6585965,6.52631579 25.0175439,6.52631579 L29.3684211,6.52631579 C29.725193,6.52631579 30.0188772,6.84610526 30.0188772,7.23550878 C30.0188772,7.62708773 29.725193,7.94470175 29.3684211,7.94470175 L29.3705965,7.94470175 Z M29.3705965,13.5072983 L25.0175439,13.5072983 C24.6585965,13.5072983 24.3670877,13.1875088 24.3670877,12.7981053 C24.3670877,12.4065263 24.6585965,12.0889123 25.0175439,12.0889123 L29.3684211,12.0889123 C29.725193,12.0889123 30.0188772,12.4065263 30.0188772,12.7981053 C30.0188772,13.1875088 29.725193,13.5072983 29.3684211,13.5072983 L29.3705965,13.5072983 Z M29.3705965,19.770386 L25.0175439,19.770386 C24.6585965,19.770386 24.3670877,19.4505965 24.3670877,19.061193 C24.3670877,18.669614 24.6585965,18.352 25.0175439,18.352 L29.3684211,18.352 C29.725193,18.352 30.0188772,18.6717895 30.0188772,19.061193 C30.0188772,19.4527719 29.725193,19.770386 29.3684211,19.770386 L29.3705965,19.770386 Z M11.5537544,18.8632673 C11.4350701,18.8645396 11.3183472,18.8329114 11.2165614,18.7718596 C11.0031595,18.6394552 10.8744623,18.4051602 10.8771504,18.1540351 L10.8771504,9.41529825 C10.8744623,9.16417312 11.0031595,8.9298781 11.2165614,8.79747368 C11.4240575,8.66996117 11.6856267,8.66996117 11.8931228,8.79747368 L19.1221053,13.1679298 C19.3348408,13.2999306 19.4634416,13.5332257 19.4615163,13.7835789 C19.4642044,14.0347041 19.3355071,14.2689991 19.1221053,14.4014035 L11.8931228,18.7653333 C11.7907916,18.8277303 11.6735967,18.8615365 11.5537544,18.8632673 Z M12.2324912,10.6400702 L12.2324912,16.9270877 L17.429614,13.7835789 L12.2303158,10.6422456 L12.2324912,10.6400702 Z" id="形状"></path>
        </g>
    </g>
</svg>