<?xml version="1.0" encoding="UTF-8"?>
<svg width="640px" height="361px" viewBox="0 0 640 361" version="1.1" xmlns="http://www.w3.org/2000/svg" xmlns:xlink="http://www.w3.org/1999/xlink">
    <!-- Generator: Sketch 55.1 (78136) - https://sketchapp.com -->
    <title>编组 3</title>
    <desc>Created with Sketch.</desc>
    <g id="页面1" stroke="none" stroke-width="1" fill="none" fill-rule="evenodd">
        <g id="编组-3">
            <rect id="矩形" fill="#ECF2F2" x="0" y="0" width="640" height="361"></rect>
            <g id="ppt" transform="translate(226.000000, 64.000000)" fill-rule="nonzero">
                <polygon id="路径" fill="#BFD7D6" points="4 4 171 4 171 230 4 230"></polygon>
                <path d="M51,161 C51,183.09139 68.90861,201 91,201 C113.09139,201 131,183.09139 131,161 C131,138.90861 113.09139,121 91,121 C68.90861,121 51,138.90861 51,161 Z" id="路径" fill="#87ACAB"></path>
                <path d="M91,156.704284 L121.014544,187 C127.451152,179.652645 131.002789,170.182536 131,160.374712 C131,138.07686 113.090908,120 91,120 L91,156.704284 Z" id="路径" fill="#BFD7D6"></path>
                <path d="M51,159.774495 C51,169.833593 54.7890909,178.998223 60.9854545,186 L91,156.156299 L91,120 C68.9090909,120 51,137.805043 51,159.774495 Z" id="路径" fill="#5B908E"></path>
                <path d="M90.8653846,203.875 C114.951981,203.875 134.480769,184.313922 134.480769,160.1875 C134.480769,136.061078 114.951981,116.5 90.8653846,116.5 C66.7787885,116.5 47.25,136.061078 47.25,160.1875 C47.25,184.313922 66.7787885,203.875 90.8653846,203.875 Z M94.5,123.966922 C112.865712,125.794516 127.211543,141.310859 127.211543,160.1875 C127.215134,167.718328 124.873526,175.062748 120.512942,181.197547 L94.5,155.141594 L94.5,123.966922 Z M115.831558,186.600234 C109.318327,192.778375 100.544365,196.59375 90.8653846,196.59375 C81.1864038,196.59375 72.4124423,192.778375 65.8992115,186.600234 L90.8653846,161.592781 L115.831558,186.600234 Z M87.2307692,123.966922 L87.2307692,155.141594 L61.2178269,181.197547 C56.8572433,175.062748 54.5156349,167.718328 54.5192266,160.1875 C54.5192266,141.307219 68.8650577,125.794516 87.2307692,123.966922 Z M181.730769,29.125 L174.461538,29.125 L174.461538,7.28125 C174.461538,3.25992667 171.206993,0 167.192308,0 L7.26923077,0 C3.25454547,0 0,3.25992667 0,7.28125 L0,225.71875 C0,229.740073 3.25454547,233 7.26923077,233 L167.192308,233 C171.206993,233 174.461538,229.740073 174.461538,225.71875 L174.461538,94.65625 L181.730769,94.65625 C185.745455,94.65625 189,91.3963233 189,87.375 L189,36.40625 C189,32.3849267 185.745455,29.125 181.730769,29.125 Z M167.192308,29.125 L79.9615385,29.125 C75.9468532,29.125 72.6923077,32.3849267 72.6923077,36.40625 L72.6923077,87.375 C72.6923077,91.3963233 75.9468532,94.65625 79.9615385,94.65625 L167.192308,94.65625 L167.192308,225.71875 L7.26923077,225.71875 L7.26923077,7.28125 L167.192308,7.28125 L167.192308,29.125 Z" id="形状" fill="#2B3139"></path>
                <polygon id="路径" fill="#FFFFFF" points="80 36 182 36 182 87 80 87"></polygon>
                <path d="M94,49 L107.279591,49 C114.274929,49 116.729433,54.1701233 116.729433,57.8828475 C116.729433,64.1824552 112.545947,67.1300448 106.62626,67.1300448 L101.937434,67.1300448 L101.937434,75 L94,75 L94,49 Z M101.941044,60.9470291 L105.009174,60.9470291 C107.063017,60.9470291 109.228756,60.8012892 109.228756,58.1779709 C109.228756,55.8096973 107.423974,55.6676009 105.478418,55.6676009 L101.944653,55.6676009 L101.944653,60.9470291 L101.941044,60.9470291 Z M119.41134,49 L132.687321,49 C139.686269,49 142.140773,54.1701233 142.140773,57.8828475 C142.140773,64.1824552 137.957287,67.1300448 132.0376,67.1300448 L127.348774,67.1300448 L127.348774,75 L119.41134,75 L119.41134,49 Z M127.352384,60.9470291 L130.420514,60.9470291 C132.474357,60.9470291 134.640096,60.8012892 134.640096,58.1779709 C134.640096,55.8096973 132.835314,55.6676009 130.889758,55.6676009 L127.355993,55.6676009 L127.355993,60.9470291 L127.352384,60.9470291 Z M150.847045,55.6639574 L143.631524,55.6639574 L143.631524,49 L166,49 L166,55.6639574 L158.784479,55.6639574 L158.784479,75 L150.847045,75 L150.847045,55.6639574 L150.847045,55.6639574 Z" id="形状" fill="#2B3139"></path>
            </g>
        </g>
    </g>
</svg>