<?xml version="1.0" encoding="UTF-8"?>
<svg width="18px" height="17px" viewBox="0 0 18 17" version="1.1" xmlns="http://www.w3.org/2000/svg" xmlns:xlink="http://www.w3.org/1999/xlink">
    <!-- Generator: Sketch 55.1 (78136) - https://sketchapp.com -->
    <title>撤回</title>
    <desc>Created with Sketch.</desc>
    <g id="页面1" stroke="none" stroke-width="1" fill="none" fill-rule="evenodd">
        <g id="撤回" fill="#A2A7AD" fill-rule="nonzero">
            <path d="M10.8,3.69351562 L3.15,3.69351562 L5.31,1.53351563 C5.67,1.17351563 5.67,0.633515625 5.31,0.273515625 C4.95,-0.086484375 4.41,-0.086484375 4.05,0.273515625 L0.27,4.05351563 C0.09,4.23351563 0,4.50351563 0,4.68351563 C0,4.95351563 0.09,5.13351563 0.27,5.31351563 L4.05,9.09351563 C4.41,9.45351562 4.95,9.45351562 5.31,9.09351563 C5.67,8.73351563 5.67,8.19351562 5.31,7.83351563 L2.7,5.22351563 L10.8,5.22351563 C13.86,5.22351563 16.38,7.29351563 16.38,9.81351562 C16.38,12.3335156 13.86,14.4035156 10.8,14.4035156 L4.41,14.4035156 C3.96,14.4935156 3.6,14.8535156 3.6,15.3035156 C3.6,15.7535156 3.96,16.1135156 4.41,16.1135156 L10.8,16.1135156 C14.76,16.1135156 18,13.3235156 18,9.90351563 C18,6.48351563 14.76,3.69351563 10.8,3.69351562 Z" id="路径"></path>
        </g>
    </g>
</svg>