<?xml version="1.0" encoding="UTF-8"?>
<svg width="83px" height="71px" viewBox="0 0 83 71" version="1.1" xmlns="http://www.w3.org/2000/svg" xmlns:xlink="http://www.w3.org/1999/xlink">
    <!-- Generator: Sketch 55.1 (78136) - https://sketchapp.com -->
    <title>编组 16</title>
    <desc>Created with Sketch.</desc>
    <g id="页面1" stroke="none" stroke-width="1" fill="none" fill-rule="evenodd">
        <g id="编组-16">
            <g id="编组-14">
                <g id="转换" transform="translate(10.000000, 0.000000)" fill="#495460" fill-rule="nonzero">
                    <path d="M25,65 L24.116941,65 L24.116941,64.0487593 L25,64.0487593 L25,65 Z M23.1310014,65 L22.1450617,65 L22.1450617,64.0487593 L23.1310014,64.0487593 L23.1310014,65 Z M21.1676955,65 L20.1817558,65 L20.1817558,64.0487593 L21.1676955,64.0487593 L21.1676955,65 Z M19.1958162,65 L18.2184499,65 L18.2184499,64.0487593 L19.2043896,64.0487593 L19.2043896,65 L19.1958162,65 Z M17.2325103,65 L16.2465706,65 L16.2465706,64.0487593 L17.2325103,64.0487593 L17.2325103,65 L17.2325103,65 Z M15.2692044,65 L14.2832647,65 L14.2832647,64.0487593 L15.2692044,64.0487593 L15.2692044,65 Z M13.2973251,65 L12.3113855,65 L12.3113855,64.0487593 L13.2973251,64.0487593 L13.2973251,65 Z M11.3340192,65 L10.3480796,65 L10.3480796,64.0487593 L11.3340192,64.0487593 L11.3340192,65 Z M9.36213992,65 L8.36762689,65 L8.39334705,64.0487593 L9.36213992,64.0487593 L9.36213992,65 L9.36213992,65 Z M7.33024691,64.9090118 C6.98731139,64.8593818 6.64437586,64.7932085 6.31001372,64.7022203 L6.57578875,63.7840662 C6.86728395,63.8667828 7.17592593,63.9246844 7.47599451,63.9660427 L7.33024691,64.9090118 Z M5.32407407,64.3713539 C5.00685871,64.2390074 4.68964335,64.0983892 4.38957476,63.932956 L4.8696845,63.1057902 C5.13545953,63.25468 5.41838134,63.3787549 5.70130316,63.4945581 L5.32407407,64.3713539 L5.32407407,64.3713539 Z M3.51508916,63.3870266 C3.24074074,63.1885067 2.96639232,62.9734436 2.71776406,62.7418372 L3.39506173,62.0470178 C3.61796982,62.2538093 3.85802469,62.4440575 4.10665295,62.6177623 L3.51508916,63.3870266 Z M1.99759945,62.0139312 C1.77469136,61.7575098 1.56893004,61.4845451 1.3803155,61.2033087 L2.20336077,60.6904658 C2.37482853,60.9386156 2.55486968,61.1784937 2.75205761,61.4101001 L1.99759945,62.0139312 Z M0.865912209,60.3265128 C0.711591221,60.0287331 0.582990398,59.7144101 0.471536351,59.4000871 L1.39746228,59.0940357 C1.50034294,59.3752721 1.61179698,59.6482368 1.74897119,59.9212016 L0.865912209,60.3265128 L0.865912209,60.3265128 Z M0.18861454,58.4240313 C0.120027435,58.1014367 0.0685871056,57.7622987 0.0342935528,57.4314323 L1.01165981,57.3487157 C1.03737997,57.6464954 1.0888203,57.9442751 1.14883402,58.2255115 L0.18861454,58.4240313 L0.18861454,58.4240313 Z M0.985939643,56.4388333 L0,56.4388333 L0,55.4875925 L0.985939643,55.4875925 L0.985939643,56.4388333 L0.985939643,56.4388333 Z M0.985939643,54.5446234 L0,54.5446234 L0,53.5933827 L0.985939643,53.5933827 L0.985939643,54.5446234 L0.985939643,54.5446234 Z M0.985939643,52.6504136 L0,52.6504136 L0,51.6991728 L0.985939643,51.6991728 L0.985939643,52.6504136 L0.985939643,52.6504136 Z M0.985939643,50.7479321 L0,50.7479321 L0,49.7966913 L0.985939643,49.7966913 L0.985939643,50.7479321 L0.985939643,50.7479321 Z M0.985939643,48.8537222 L0,48.8537222 L0,47.9024815 L0.985939643,47.9024815 L0.985939643,48.8537222 L0.985939643,48.8537222 Z M0.985939643,46.9512407 L0,46.9512407 L0,46 L0.985939643,46 L0.985939643,46.9512407 L0.985939643,46.9512407 Z" id="形状"></path>
                    <path d="M24.8207705,68 L24.1758794,67.287947 L26.8056951,64.8837209 L24,62.2700675 L24.6532663,61.5663916 L28.2211055,64.892098 L24.8207705,68 Z M64,21.2338085 L63.0368509,21.2338085 L63.0368509,20.2704426 L64,20.2704426 L64,21.2338085 Z M64,19.3154539 L63.0368509,19.3154539 L63.0368509,18.352088 L64,18.352088 L64,19.3154539 Z M64,17.3887222 L63.0368509,17.3887222 L63.0368509,16.4253563 L64,16.4253563 L64,17.3887222 Z M64,15.4703676 L63.0368509,15.4703676 L63.0368509,14.5070018 L64,14.5070018 L64,15.4703676 L64,15.4703676 Z M64,13.5436359 L63.0368509,13.5436359 L63.0368509,12.5802701 L64,12.5802701 L64,13.5436359 L64,13.5436359 Z M64,11.6252813 L63.0368509,11.6252813 L63.0368509,10.6619155 L64,10.6619155 L64,11.6252813 Z M63.0117253,9.7488122 C62.9865997,9.44723681 62.9363484,9.14566142 62.8777219,8.86084021 L63.8157454,8.65978995 C63.8827471,8.98649662 63.9329983,9.32995749 63.9664992,9.66504126 L63.0117253,9.7488122 Z M62.6348409,7.98962241 C62.5343384,7.7048012 62.4254606,7.42835709 62.2914573,7.16029007 L63.1541039,6.74143536 C63.3048576,7.04301075 63.4304858,7.36134034 63.5393635,7.67966992 L62.6348409,7.98962241 L62.6348409,7.98962241 Z M61.8475712,6.36446612 C61.680067,6.11315329 61.5041876,5.87021755 61.3115578,5.63565891 L62.0485762,5.02413103 C62.2663317,5.28382096 62.4673367,5.56026507 62.6515913,5.84508627 L61.8475712,6.36446612 Z M60.6917923,4.98224556 C60.4740369,4.7728182 60.239531,4.58014504 59.9966499,4.40422606 L60.5661642,3.63353338 C60.8341709,3.83458365 61.1021776,4.0523881 61.3450586,4.28694674 L60.6917923,4.98224556 L60.6917923,4.98224556 Z M59.2428811,3.91835459 C58.9832496,3.76756689 58.7068677,3.64191048 58.4304858,3.52463116 L58.798995,2.63665916 C59.1088777,2.76231558 59.4187605,2.91310328 59.7118928,3.08064516 L59.2428811,3.91835459 L59.2428811,3.91835459 Z M57.5845896,3.23143286 C57.2998325,3.14766192 56.998325,3.08902226 56.7051926,3.04713678 L56.8475712,2.10052513 C57.1825796,2.1507877 57.5175879,2.21780445 57.8442211,2.30995249 L57.5845896,3.23143286 Z M55.80067,2.96336584 L54.8542714,2.96336584 L54.8542714,2 L55.8257956,2 L55.80067,2.96336584 L55.80067,2.96336584 Z M53.8911223,2.96336584 L52.9279732,2.96336584 L52.9279732,2 L53.8911223,2 L53.8911223,2.96336584 Z M51.9731993,2.96336584 L51.0100503,2.96336584 L51.0100503,2 L51.9731993,2 L51.9731993,2.96336584 Z M50.0469012,2.96336584 L49.0837521,2.96336584 L49.0837521,2 L50.0469012,2 L50.0469012,2.96336584 Z M48.1289782,2.96336584 L47.1658291,2.96336584 L47.1658291,2 L48.1289782,2 L48.1289782,2.96336584 Z M46.2110553,2.96336584 L45.2479062,2.96336584 L45.2479062,2 L46.2110553,2 L46.2110553,2.96336584 L46.2110553,2.96336584 Z M44.2847571,2.96336584 L43.321608,2.96336584 L43.321608,2 L44.2847571,2 L44.2847571,2.96336584 L44.2847571,2.96336584 Z M42.3668342,2.96336584 L41.4036851,2.96336584 L41.4036851,2 L42.3668342,2 L42.3668342,2.96336584 Z M40.440536,2.96336584 L39.4773869,2.96336584 L39.4773869,2 L40.440536,2 L40.440536,2.96336584 Z" id="形状"></path>
                    <polygon id="路径" points="38.3809524 6 35 2.90221643 38.2222222 0 38.8333333 0.657105606 36.3412698 2.91003911 39 5.34289439"></polygon>
                </g>
                <g id="文档中心" transform="translate(0.000000, 3.000000)" fill-rule="nonzero">
                    <path d="M40.6350442,37 L2.38745779,37 C1.62435601,37 1,36.3583815 1,35.5741811 L1,6.24983943 C1,5.46563905 1.62435601,4.82402055 2.38745779,4.82402055 L20.424409,4.82402055 L24.8873983,0 L40.6119199,0 C41.3750217,0 41.9993777,0.641618497 41.9993777,1.42581888 L41.9993777,35.5741811 C42.022502,36.3583815 41.398146,37 40.6350442,37 Z" id="路径" fill="#DFEBEA"></path>
                    <path d="M40.1694335,38 L1.85326106,38 C0.833967477,38 0,37.1428571 0,36.0952381 L0,6.71428571 C0,5.66666667 0.833967477,4.80952381 1.85326106,4.80952381 L19.7372303,4.80952381 L24.069228,0.142857143 C24.1618911,0.0476190476 24.2777199,0 24.3935487,0 L40.1462677,0 C41.1655613,0 41.9995288,0.857142857 41.9995288,1.9047619 L41.9995288,36.0952381 C42.0226945,37.1428571 41.188727,38 40.1694335,38 Z M1.85326106,5.76190476 C1.34361427,5.76190476 0.92663053,6.19047619 0.92663053,6.71428571 L0.92663053,36.0952381 C0.92663053,36.6190476 1.34361427,37.047619 1.85326106,37.047619 L40.1462677,37.047619 C40.6559145,37.047619 41.0728982,36.6190476 41.0728982,36.0952381 L41.0728982,1.88095238 C41.0728982,1.35714286 40.6559145,0.928571429 40.1462677,0.928571429 L24.6020406,0.928571429 L20.2700428,5.61904762 C20.1773798,5.71428571 20.061551,5.76190476 19.9457221,5.76190476 L1.85326106,5.76190476 Z" id="形状" fill="#333333"></path>
                    <path d="M36.6440598,32 L7.37829354,32 C6.62023209,32 6,31.3390453 6,30.5312118 L6,13.4687882 C6,12.6609547 6.62023209,12 7.37829354,12 L36.6210882,12 C37.3791497,12 37.9993818,12.6609547 37.9993818,13.4687882 L37.9993818,30.5312118 C38.0223533,31.3390453 37.4021212,32 36.6440598,32 Z" id="路径" fill="#FFFFFF"></path>
                    <path d="M36.1802971,32 L6.84226275,32 C5.82901824,32 5,31.117853 5,30.0396733 L5,12.9603267 C5,11.882147 5.82901824,11 6.84226275,11 L36.1572688,11 C37.1705133,11 37.9995315,11.882147 37.9995315,12.9603267 L37.9995315,30.0396733 C38.0225598,31.117853 37.1935416,32 36.1802971,32 Z M6.84226275,11.9801634 C6.3356405,11.9801634 5.92113138,12.4212369 5.92113138,12.9603267 L5.92113138,30.0396733 C5.92113138,30.5787631 6.3356405,31.0198366 6.84226275,31.0198366 L36.1572688,31.0198366 C36.6638911,31.0198366 37.0784002,30.5787631 37.0784002,30.0396733 L37.0784002,12.9603267 C37.0784002,12.4212369 36.6638911,11.9801634 36.1572688,11.9801634 L6.84226275,11.9801634 Z" id="形状" fill="#333333"></path>
                    <path d="M40.6350442,38 L2.38745779,38 C1.62435601,38 1,37.3377926 1,36.5284281 L1,17.4715719 C1,16.6622074 1.62435601,16 2.38745779,16 L40.6119199,16 C41.3750217,16 41.9993777,16.6622074 41.9993777,17.4715719 L41.9993777,36.5284281 C42.022502,37.3377926 41.398146,38 40.6350442,38 Z" id="路径" fill="#DFEBEA"></path>
                    <path d="M40.1694335,38 L1.85326106,38 C0.833967477,38 0,37.1163287 0,36.036286 L0,16.963714 C0,15.8836713 0.833967477,15 1.85326106,15 L40.1462677,15 C41.1655613,15 41.9995288,15.8836713 41.9995288,16.963714 L41.9995288,36.036286 C42.0226945,37.1163287 41.188727,38 40.1694335,38 Z M1.85326106,15.981857 C1.34361427,15.981857 0.92663053,16.4236926 0.92663053,16.963714 L0.92663053,36.036286 C0.92663053,36.5763074 1.34361427,37.018143 1.85326106,37.018143 L40.1462677,37.018143 C40.6559145,37.018143 41.0728982,36.5763074 41.0728982,36.036286 L41.0728982,16.963714 C41.0728982,16.4236926 40.6559145,15.981857 40.1462677,15.981857 L1.85326106,15.981857 Z" id="形状" fill="#333333"></path>
                    <path d="M35.1627907,25.7073171 L7.81395349,25.7073171 C7.37209302,25.7073171 7,25.3170732 7,24.8536585 C7,24.3902439 7.37209302,24 7.81395349,24 L35.1860465,24 C35.627907,24 36,24.3902439 36,24.8536585 C35.9767442,25.3170732 35.627907,25.7073171 35.1627907,25.7073171 Z M35.1627907,31 L7.81395349,31 C7.37209302,31 7,30.6097561 7,30.1463415 C7,29.6829268 7.37209302,29.2926829 7.81395349,29.2926829 L35.1860465,29.2926829 C35.627907,29.2926829 36,29.6829268 36,30.1463415 C35.9767442,30.6097561 35.627907,31 35.1627907,31 Z" id="形状" fill="#5B908E"></path>
                </g>
                <rect id="矩形" fill="#FFFFFF" x="36" y="25" width="37" height="35" rx="3"></rect>
            </g>
            <g id="图片-(2)" transform="translate(41.000000, 29.000000)" fill-rule="nonzero">
                <path d="M0.188635841,0 L40.8113642,0 C40.9151139,0 41,0.0847010215 41,0.188224492 L41,40.8117755 C41,40.915299 40.9151139,41 40.8113642,41 L0.188635841,41 C0.0848861284,41 0,40.915299 0,40.8117755 L0,0.188224492 C0,0.0847010215 0.0848861284,0 0.188635841,0 Z" id="路径" fill="#FFFFFF"></path>
                <path d="M6,10 C6,12.209139 7.790861,14 10,14 C12.209139,14 14,12.209139 14,10 C14,7.790861 12.209139,6 10,6 C7.790861,6 6,7.790861 6,10 Z" id="路径" fill="#DFEBEA"></path>
                <path d="M10.5,14 C8.01830664,14 6,11.9799082 6,9.5 C6,7.02009185 8.01830664,5 10.5,5 C12.9816934,5 15,7.02009185 15,9.5 C15,11.9799082 12.9765446,14 10.5,14 Z M10.5,5.96613088 C8.55377574,5.97129736 6.97826087,7.55740528 6.98850816,9.51033295 C6.99370709,11.4632606 8.57437071,13.0442021 10.520595,13.0339195 C12.4616705,13.0287026 14.0320366,11.4477612 14.0320366,9.5 C14.0268879,7.54707233 12.4462243,5.96613088 10.5,5.96613088 Z" id="形状" fill="#333333"></path>
                <path d="M42,18.7981052 C40.5180723,18.3970935 38.9938038,18.1423332 37.4601262,18.0479775 C32.2663224,17.7177325 27.4159495,19.109479 23.4076879,21.694825 C22.2550775,22.440235 21.2624211,23.3932275 20.3403328,24.412269 C15.4617326,29.8141325 7.75100402,31.6068907 1,28.9083178 L1,41 L42,41 L42,18.7981052 Z" id="路径" fill="#DFEBEA"></path>
                <path d="M42,18.7790594 C40.5227768,18.3882887 39.0126219,18.1434686 37.4883534,18.0493069 C32.3839357,17.7244494 27.4347676,19.0097554 23.1677567,21.7592744 C22.1327596,22.4278219 21.1306942,23.312941 20.01572,24.5417501 C15.217097,29.8430488 7.61457258,31.5662063 1,28.8543519 L1,29.8006761 C7.89213999,32.4607416 15.7063683,30.6057579 20.66965,25.1302601 C21.7328744,23.95324 22.6784854,23.1199097 23.647619,22.493735 C27.7546758,19.8477937 32.5203672,18.6095685 37.431899,18.9203018 C38.9749857,19.0191715 40.5086632,19.2734079 42,19.6830109 L42,18.7790594 Z" id="路径" fill="#5B908E"></path>
                <path d="M40.3921875,42 L1.6078125,42 C0.721875,42 0,41.2828125 0,40.396875 L0,1.603125 C0,0.7171875 0.721875,0 1.6078125,0 L40.3921875,0 C41.278125,0 42,0.7171875 42,1.603125 L42,40.396875 C42,41.2828125 41.278125,42 40.3921875,42 Z M1.6078125,0.8765625 C1.2046875,0.8765625 0.88125,1.2 0.8765625,1.603125 L0.8765625,40.396875 C0.8765625,40.8 1.2046875,41.128125 1.6078125,41.1234871 L40.3921875,41.1234871 C40.7953125,41.1234871 41.1234375,40.7953125 41.1234375,40.396875 L41.1234375,1.603125 C41.1234375,1.2 40.7953125,0.8765625 40.3921875,0.8765625 L1.6078125,0.8765625 Z" id="形状" fill="#333333"></path>
            </g>
        </g>
    </g>
</svg>