<?xml version="1.0" encoding="UTF-8"?>
<svg width="78px" height="69px" viewBox="0 0 78 69" version="1.1" xmlns="http://www.w3.org/2000/svg" xmlns:xlink="http://www.w3.org/1999/xlink">
    <!-- Generator: Sketch 55.1 (78136) - https://sketchapp.com -->
    <title>编组 15</title>
    <desc>Created with Sketch.</desc>
    <g id="页面1" stroke="none" stroke-width="1" fill="none" fill-rule="evenodd">
        <g id="编组-15" fill-rule="nonzero">
            <g id="图片-(2)" transform="translate(21.000000, 0.000000)">
                <path d="M0.188635841,0 L40.8113642,0 C40.9151139,0 41,0.0847010215 41,0.188224492 L41,40.8117755 C41,40.915299 40.9151139,41 40.8113642,41 L0.188635841,41 C0.0848861284,41 0,40.915299 0,40.8117755 L0,0.188224492 C0,0.0847010215 0.0848861284,0 0.188635841,0 Z" id="路径" fill="#FFFFFF"></path>
                <path d="M6,10 C6,12.209139 7.790861,14 10,14 C12.209139,14 14,12.209139 14,10 C14,7.790861 12.209139,6 10,6 C7.790861,6 6,7.790861 6,10 Z" id="路径" fill="#DFEBEA"></path>
                <path d="M10.5,14 C8.01830664,14 6,11.9799082 6,9.5 C6,7.02009185 8.01830664,5 10.5,5 C12.9816934,5 15,7.02009185 15,9.5 C15,11.9799082 12.9765446,14 10.5,14 Z M10.5,5.96613088 C8.55377574,5.97129736 6.97826087,7.55740528 6.98850816,9.51033295 C6.99370709,11.4632606 8.57437071,13.0442021 10.520595,13.0339195 C12.4616705,13.0287026 14.0320366,11.4477612 14.0320366,9.5 C14.0268879,7.54707233 12.4462243,5.96613088 10.5,5.96613088 Z" id="形状" fill="#333333"></path>
                <path d="M42,18.7981052 C40.5180723,18.3970935 38.9938038,18.1423332 37.4601262,18.0479775 C32.2663224,17.7177325 27.4159495,19.109479 23.4076879,21.694825 C22.2550775,22.440235 21.2624211,23.3932275 20.3403328,24.412269 C15.4617326,29.8141325 7.75100402,31.6068907 1,28.9083178 L1,41 L42,41 L42,18.7981052 Z" id="路径" fill="#DFEBEA"></path>
                <path d="M42,18.7790594 C40.5227768,18.3882887 39.0126219,18.1434686 37.4883534,18.0493069 C32.3839357,17.7244494 27.4347676,19.0097554 23.1677567,21.7592744 C22.1327596,22.4278219 21.1306942,23.312941 20.01572,24.5417501 C15.217097,29.8430488 7.61457258,31.5662063 1,28.8543519 L1,29.8006761 C7.89213999,32.4607416 15.7063683,30.6057579 20.66965,25.1302601 C21.7328744,23.95324 22.6784854,23.1199097 23.647619,22.493735 C27.7546758,19.8477937 32.5203672,18.6095685 37.431899,18.9203018 C38.9749857,19.0191715 40.5086632,19.2734079 42,19.6830109 L42,18.7790594 Z" id="路径" fill="#5B908E"></path>
                <path d="M40.3921875,42 L1.6078125,42 C0.721875,42 0,41.2828125 0,40.396875 L0,1.603125 C0,0.7171875 0.721875,0 1.6078125,0 L40.3921875,0 C41.278125,0 42,0.7171875 42,1.603125 L42,40.396875 C42,41.2828125 41.278125,42 40.3921875,42 Z M1.6078125,0.8765625 C1.2046875,0.8765625 0.88125,1.2 0.8765625,1.603125 L0.8765625,40.396875 C0.8765625,40.8 1.2046875,41.128125 1.6078125,41.1234871 L40.3921875,41.1234871 C40.7953125,41.1234871 41.1234375,40.7953125 41.1234375,40.396875 L41.1234375,1.603125 C41.1234375,1.2 40.7953125,0.8765625 40.3921875,0.8765625 L1.6078125,0.8765625 Z" id="形状" fill="#333333"></path>
            </g>
            <g id="图片-(2)" transform="translate(0.000000, 17.000000)">
                <path d="M0.188635841,0 L40.8113642,0 C40.9151139,0 41,0.0847010215 41,0.188224492 L41,40.8117755 C41,40.915299 40.9151139,41 40.8113642,41 L0.188635841,41 C0.0848861284,41 0,40.915299 0,40.8117755 L0,0.188224492 C0,0.0847010215 0.0848861284,0 0.188635841,0 Z" id="路径" fill="#FFFFFF"></path>
                <path d="M6,10 C6,12.209139 7.790861,14 10,14 C12.209139,14 14,12.209139 14,10 C14,7.790861 12.209139,6 10,6 C7.790861,6 6,7.790861 6,10 Z" id="路径" fill="#DFEBEA"></path>
                <path d="M10.5,14 C8.01830664,14 6,11.9799082 6,9.5 C6,7.02009185 8.01830664,5 10.5,5 C12.9816934,5 15,7.02009185 15,9.5 C15,11.9799082 12.9765446,14 10.5,14 Z M10.5,5.96613088 C8.55377574,5.97129736 6.97826087,7.55740528 6.98850816,9.51033295 C6.99370709,11.4632606 8.57437071,13.0442021 10.520595,13.0339195 C12.4616705,13.0287026 14.0320366,11.4477612 14.0320366,9.5 C14.0268879,7.54707233 12.4462243,5.96613088 10.5,5.96613088 Z" id="形状" fill="#333333"></path>
                <path d="M42,18.7981052 C40.5180723,18.3970935 38.9938038,18.1423332 37.4601262,18.0479775 C32.2663224,17.7177325 27.4159495,19.109479 23.4076879,21.694825 C22.2550775,22.440235 21.2624211,23.3932275 20.3403328,24.412269 C15.4617326,29.8141325 7.75100402,31.6068907 1,28.9083178 L1,41 L42,41 L42,18.7981052 Z" id="路径" fill="#DFEBEA"></path>
                <path d="M42,18.7790594 C40.5227768,18.3882887 39.0126219,18.1434686 37.4883534,18.0493069 C32.3839357,17.7244494 27.4347676,19.0097554 23.1677567,21.7592744 C22.1327596,22.4278219 21.1306942,23.312941 20.01572,24.5417501 C15.217097,29.8430488 7.61457258,31.5662063 1,28.8543519 L1,29.8006761 C7.89213999,32.4607416 15.7063683,30.6057579 20.66965,25.1302601 C21.7328744,23.95324 22.6784854,23.1199097 23.647619,22.493735 C27.7546758,19.8477937 32.5203672,18.6095685 37.431899,18.9203018 C38.9749857,19.0191715 40.5086632,19.2734079 42,19.6830109 L42,18.7790594 Z" id="路径" fill="#5B908E"></path>
                <path d="M40.3921875,42 L1.6078125,42 C0.721875,42 0,41.2828125 0,40.396875 L0,1.603125 C0,0.7171875 0.721875,0 1.6078125,0 L40.3921875,0 C41.278125,0 42,0.7171875 42,1.603125 L42,40.396875 C42,41.2828125 41.278125,42 40.3921875,42 Z M1.6078125,0.8765625 C1.2046875,0.8765625 0.88125,1.2 0.8765625,1.603125 L0.8765625,40.396875 C0.8765625,40.8 1.2046875,41.128125 1.6078125,41.1234871 L40.3921875,41.1234871 C40.7953125,41.1234871 41.1234375,40.7953125 41.1234375,40.396875 L41.1234375,1.603125 C41.1234375,1.2 40.7953125,0.8765625 40.3921875,0.8765625 L1.6078125,0.8765625 Z" id="形状" fill="#333333"></path>
            </g>
            <g id="图片-(2)" transform="translate(36.000000, 27.000000)">
                <path d="M0.188635841,0 L40.8113642,0 C40.9151139,0 41,0.0847010215 41,0.188224492 L41,40.8117755 C41,40.915299 40.9151139,41 40.8113642,41 L0.188635841,41 C0.0848861284,41 0,40.915299 0,40.8117755 L0,0.188224492 C0,0.0847010215 0.0848861284,0 0.188635841,0 Z" id="路径" fill="#FFFFFF"></path>
                <path d="M6,10 C6,12.209139 7.790861,14 10,14 C12.209139,14 14,12.209139 14,10 C14,7.790861 12.209139,6 10,6 C7.790861,6 6,7.790861 6,10 Z" id="路径" fill="#DFEBEA"></path>
                <path d="M10.5,14 C8.01830664,14 6,11.9799082 6,9.5 C6,7.02009185 8.01830664,5 10.5,5 C12.9816934,5 15,7.02009185 15,9.5 C15,11.9799082 12.9765446,14 10.5,14 Z M10.5,5.96613088 C8.55377574,5.97129736 6.97826087,7.55740528 6.98850816,9.51033295 C6.99370709,11.4632606 8.57437071,13.0442021 10.520595,13.0339195 C12.4616705,13.0287026 14.0320366,11.4477612 14.0320366,9.5 C14.0268879,7.54707233 12.4462243,5.96613088 10.5,5.96613088 Z" id="形状" fill="#333333"></path>
                <path d="M42,18.7981052 C40.5180723,18.3970935 38.9938038,18.1423332 37.4601262,18.0479775 C32.2663224,17.7177325 27.4159495,19.109479 23.4076879,21.694825 C22.2550775,22.440235 21.2624211,23.3932275 20.3403328,24.412269 C15.4617326,29.8141325 7.75100402,31.6068907 1,28.9083178 L1,41 L42,41 L42,18.7981052 Z" id="路径" fill="#DFEBEA"></path>
                <path d="M42,18.7790594 C40.5227768,18.3882887 39.0126219,18.1434686 37.4883534,18.0493069 C32.3839357,17.7244494 27.4347676,19.0097554 23.1677567,21.7592744 C22.1327596,22.4278219 21.1306942,23.312941 20.01572,24.5417501 C15.217097,29.8430488 7.61457258,31.5662063 1,28.8543519 L1,29.8006761 C7.89213999,32.4607416 15.7063683,30.6057579 20.66965,25.1302601 C21.7328744,23.95324 22.6784854,23.1199097 23.647619,22.493735 C27.7546758,19.8477937 32.5203672,18.6095685 37.431899,18.9203018 C38.9749857,19.0191715 40.5086632,19.2734079 42,19.6830109 L42,18.7790594 Z" id="路径" fill="#5B908E"></path>
                <path d="M40.3921875,42 L1.6078125,42 C0.721875,42 0,41.2828125 0,40.396875 L0,1.603125 C0,0.7171875 0.721875,0 1.6078125,0 L40.3921875,0 C41.278125,0 42,0.7171875 42,1.603125 L42,40.396875 C42,41.2828125 41.278125,42 40.3921875,42 Z M1.6078125,0.8765625 C1.2046875,0.8765625 0.88125,1.2 0.8765625,1.603125 L0.8765625,40.396875 C0.8765625,40.8 1.2046875,41.128125 1.6078125,41.1234871 L40.3921875,41.1234871 C40.7953125,41.1234871 41.1234375,40.7953125 41.1234375,40.396875 L41.1234375,1.603125 C41.1234375,1.2 40.7953125,0.8765625 40.3921875,0.8765625 L1.6078125,0.8765625 Z" id="形状" fill="#333333"></path>
            </g>
        </g>
    </g>
</svg>