<?xml version="1.0" encoding="UTF-8"?>
<svg width="85px" height="68px" viewBox="0 0 85 68" version="1.1" xmlns="http://www.w3.org/2000/svg" xmlns:xlink="http://www.w3.org/1999/xlink">
    <!-- Generator: Sketch 55.1 (78136) - https://sketchapp.com -->
    <title>编组 14</title>
    <desc>Created with Sketch.</desc>
    <g id="页面1" stroke="none" stroke-width="1" fill="none" fill-rule="evenodd">
        <g id="编组-14">
            <g id="转换" transform="translate(10.000000, 0.000000)" fill="#495460" fill-rule="nonzero">
                <path d="M25,65 L24.116941,65 L24.116941,64.0487593 L25,64.0487593 L25,65 Z M23.1310014,65 L22.1450617,65 L22.1450617,64.0487593 L23.1310014,64.0487593 L23.1310014,65 Z M21.1676955,65 L20.1817558,65 L20.1817558,64.0487593 L21.1676955,64.0487593 L21.1676955,65 Z M19.1958162,65 L18.2184499,65 L18.2184499,64.0487593 L19.2043896,64.0487593 L19.2043896,65 L19.1958162,65 Z M17.2325103,65 L16.2465706,65 L16.2465706,64.0487593 L17.2325103,64.0487593 L17.2325103,65 L17.2325103,65 Z M15.2692044,65 L14.2832647,65 L14.2832647,64.0487593 L15.2692044,64.0487593 L15.2692044,65 Z M13.2973251,65 L12.3113855,65 L12.3113855,64.0487593 L13.2973251,64.0487593 L13.2973251,65 Z M11.3340192,65 L10.3480796,65 L10.3480796,64.0487593 L11.3340192,64.0487593 L11.3340192,65 Z M9.36213992,65 L8.36762689,65 L8.39334705,64.0487593 L9.36213992,64.0487593 L9.36213992,65 L9.36213992,65 Z M7.33024691,64.9090118 C6.98731139,64.8593818 6.64437586,64.7932085 6.31001372,64.7022203 L6.57578875,63.7840662 C6.86728395,63.8667828 7.17592593,63.9246844 7.47599451,63.9660427 L7.33024691,64.9090118 Z M5.32407407,64.3713539 C5.00685871,64.2390074 4.68964335,64.0983892 4.38957476,63.932956 L4.8696845,63.1057902 C5.13545953,63.25468 5.41838134,63.3787549 5.70130316,63.4945581 L5.32407407,64.3713539 L5.32407407,64.3713539 Z M3.51508916,63.3870266 C3.24074074,63.1885067 2.96639232,62.9734436 2.71776406,62.7418372 L3.39506173,62.0470178 C3.61796982,62.2538093 3.85802469,62.4440575 4.10665295,62.6177623 L3.51508916,63.3870266 Z M1.99759945,62.0139312 C1.77469136,61.7575098 1.56893004,61.4845451 1.3803155,61.2033087 L2.20336077,60.6904658 C2.37482853,60.9386156 2.55486968,61.1784937 2.75205761,61.4101001 L1.99759945,62.0139312 Z M0.865912209,60.3265128 C0.711591221,60.0287331 0.582990398,59.7144101 0.471536351,59.4000871 L1.39746228,59.0940357 C1.50034294,59.3752721 1.61179698,59.6482368 1.74897119,59.9212016 L0.865912209,60.3265128 L0.865912209,60.3265128 Z M0.18861454,58.4240313 C0.120027435,58.1014367 0.0685871056,57.7622987 0.0342935528,57.4314323 L1.01165981,57.3487157 C1.03737997,57.6464954 1.0888203,57.9442751 1.14883402,58.2255115 L0.18861454,58.4240313 L0.18861454,58.4240313 Z M0.985939643,56.4388333 L0,56.4388333 L0,55.4875925 L0.985939643,55.4875925 L0.985939643,56.4388333 L0.985939643,56.4388333 Z M0.985939643,54.5446234 L0,54.5446234 L0,53.5933827 L0.985939643,53.5933827 L0.985939643,54.5446234 L0.985939643,54.5446234 Z M0.985939643,52.6504136 L0,52.6504136 L0,51.6991728 L0.985939643,51.6991728 L0.985939643,52.6504136 L0.985939643,52.6504136 Z M0.985939643,50.7479321 L0,50.7479321 L0,49.7966913 L0.985939643,49.7966913 L0.985939643,50.7479321 L0.985939643,50.7479321 Z M0.985939643,48.8537222 L0,48.8537222 L0,47.9024815 L0.985939643,47.9024815 L0.985939643,48.8537222 L0.985939643,48.8537222 Z M0.985939643,46.9512407 L0,46.9512407 L0,46 L0.985939643,46 L0.985939643,46.9512407 L0.985939643,46.9512407 Z" id="形状"></path>
                <path d="M24.8207705,68 L24.1758794,67.287947 L26.8056951,64.8837209 L24,62.2700675 L24.6532663,61.5663916 L28.2211055,64.892098 L24.8207705,68 Z M64,21.2338085 L63.0368509,21.2338085 L63.0368509,20.2704426 L64,20.2704426 L64,21.2338085 Z M64,19.3154539 L63.0368509,19.3154539 L63.0368509,18.352088 L64,18.352088 L64,19.3154539 Z M64,17.3887222 L63.0368509,17.3887222 L63.0368509,16.4253563 L64,16.4253563 L64,17.3887222 Z M64,15.4703676 L63.0368509,15.4703676 L63.0368509,14.5070018 L64,14.5070018 L64,15.4703676 L64,15.4703676 Z M64,13.5436359 L63.0368509,13.5436359 L63.0368509,12.5802701 L64,12.5802701 L64,13.5436359 L64,13.5436359 Z M64,11.6252813 L63.0368509,11.6252813 L63.0368509,10.6619155 L64,10.6619155 L64,11.6252813 Z M63.0117253,9.7488122 C62.9865997,9.44723681 62.9363484,9.14566142 62.8777219,8.86084021 L63.8157454,8.65978995 C63.8827471,8.98649662 63.9329983,9.32995749 63.9664992,9.66504126 L63.0117253,9.7488122 Z M62.6348409,7.98962241 C62.5343384,7.7048012 62.4254606,7.42835709 62.2914573,7.16029007 L63.1541039,6.74143536 C63.3048576,7.04301075 63.4304858,7.36134034 63.5393635,7.67966992 L62.6348409,7.98962241 L62.6348409,7.98962241 Z M61.8475712,6.36446612 C61.680067,6.11315329 61.5041876,5.87021755 61.3115578,5.63565891 L62.0485762,5.02413103 C62.2663317,5.28382096 62.4673367,5.56026507 62.6515913,5.84508627 L61.8475712,6.36446612 Z M60.6917923,4.98224556 C60.4740369,4.7728182 60.239531,4.58014504 59.9966499,4.40422606 L60.5661642,3.63353338 C60.8341709,3.83458365 61.1021776,4.0523881 61.3450586,4.28694674 L60.6917923,4.98224556 L60.6917923,4.98224556 Z M59.2428811,3.91835459 C58.9832496,3.76756689 58.7068677,3.64191048 58.4304858,3.52463116 L58.798995,2.63665916 C59.1088777,2.76231558 59.4187605,2.91310328 59.7118928,3.08064516 L59.2428811,3.91835459 L59.2428811,3.91835459 Z M57.5845896,3.23143286 C57.2998325,3.14766192 56.998325,3.08902226 56.7051926,3.04713678 L56.8475712,2.10052513 C57.1825796,2.1507877 57.5175879,2.21780445 57.8442211,2.30995249 L57.5845896,3.23143286 Z M55.80067,2.96336584 L54.8542714,2.96336584 L54.8542714,2 L55.8257956,2 L55.80067,2.96336584 L55.80067,2.96336584 Z M53.8911223,2.96336584 L52.9279732,2.96336584 L52.9279732,2 L53.8911223,2 L53.8911223,2.96336584 Z M51.9731993,2.96336584 L51.0100503,2.96336584 L51.0100503,2 L51.9731993,2 L51.9731993,2.96336584 Z M50.0469012,2.96336584 L49.0837521,2.96336584 L49.0837521,2 L50.0469012,2 L50.0469012,2.96336584 Z M48.1289782,2.96336584 L47.1658291,2.96336584 L47.1658291,2 L48.1289782,2 L48.1289782,2.96336584 Z M46.2110553,2.96336584 L45.2479062,2.96336584 L45.2479062,2 L46.2110553,2 L46.2110553,2.96336584 L46.2110553,2.96336584 Z M44.2847571,2.96336584 L43.321608,2.96336584 L43.321608,2 L44.2847571,2 L44.2847571,2.96336584 L44.2847571,2.96336584 Z M42.3668342,2.96336584 L41.4036851,2.96336584 L41.4036851,2 L42.3668342,2 L42.3668342,2.96336584 Z M40.440536,2.96336584 L39.4773869,2.96336584 L39.4773869,2 L40.440536,2 L40.440536,2.96336584 Z" id="形状"></path>
                <polygon id="路径" points="38.3809524 6 35 2.90221643 38.2222222 0 38.8333333 0.657105606 36.3412698 2.91003911 39 5.34289439"></polygon>
            </g>
            <g id="文档中心" transform="translate(0.000000, 3.000000)" fill-rule="nonzero">
                <path d="M40.6350442,37 L2.38745779,37 C1.62435601,37 1,36.3583815 1,35.5741811 L1,6.24983943 C1,5.46563905 1.62435601,4.82402055 2.38745779,4.82402055 L20.424409,4.82402055 L24.8873983,0 L40.6119199,0 C41.3750217,0 41.9993777,0.641618497 41.9993777,1.42581888 L41.9993777,35.5741811 C42.022502,36.3583815 41.398146,37 40.6350442,37 Z" id="路径" fill="#DFEBEA"></path>
                <path d="M40.1694335,38 L1.85326106,38 C0.833967477,38 0,37.1428571 0,36.0952381 L0,6.71428571 C0,5.66666667 0.833967477,4.80952381 1.85326106,4.80952381 L19.7372303,4.80952381 L24.069228,0.142857143 C24.1618911,0.0476190476 24.2777199,0 24.3935487,0 L40.1462677,0 C41.1655613,0 41.9995288,0.857142857 41.9995288,1.9047619 L41.9995288,36.0952381 C42.0226945,37.1428571 41.188727,38 40.1694335,38 Z M1.85326106,5.76190476 C1.34361427,5.76190476 0.92663053,6.19047619 0.92663053,6.71428571 L0.92663053,36.0952381 C0.92663053,36.6190476 1.34361427,37.047619 1.85326106,37.047619 L40.1462677,37.047619 C40.6559145,37.047619 41.0728982,36.6190476 41.0728982,36.0952381 L41.0728982,1.88095238 C41.0728982,1.35714286 40.6559145,0.928571429 40.1462677,0.928571429 L24.6020406,0.928571429 L20.2700428,5.61904762 C20.1773798,5.71428571 20.061551,5.76190476 19.9457221,5.76190476 L1.85326106,5.76190476 Z" id="形状" fill="#333333"></path>
                <path d="M36.6440598,32 L7.37829354,32 C6.62023209,32 6,31.3390453 6,30.5312118 L6,13.4687882 C6,12.6609547 6.62023209,12 7.37829354,12 L36.6210882,12 C37.3791497,12 37.9993818,12.6609547 37.9993818,13.4687882 L37.9993818,30.5312118 C38.0223533,31.3390453 37.4021212,32 36.6440598,32 Z" id="路径" fill="#FFFFFF"></path>
                <path d="M36.1802971,32 L6.84226275,32 C5.82901824,32 5,31.117853 5,30.0396733 L5,12.9603267 C5,11.882147 5.82901824,11 6.84226275,11 L36.1572688,11 C37.1705133,11 37.9995315,11.882147 37.9995315,12.9603267 L37.9995315,30.0396733 C38.0225598,31.117853 37.1935416,32 36.1802971,32 Z M6.84226275,11.9801634 C6.3356405,11.9801634 5.92113138,12.4212369 5.92113138,12.9603267 L5.92113138,30.0396733 C5.92113138,30.5787631 6.3356405,31.0198366 6.84226275,31.0198366 L36.1572688,31.0198366 C36.6638911,31.0198366 37.0784002,30.5787631 37.0784002,30.0396733 L37.0784002,12.9603267 C37.0784002,12.4212369 36.6638911,11.9801634 36.1572688,11.9801634 L6.84226275,11.9801634 Z" id="形状" fill="#333333"></path>
                <path d="M40.6350442,38 L2.38745779,38 C1.62435601,38 1,37.3377926 1,36.5284281 L1,17.4715719 C1,16.6622074 1.62435601,16 2.38745779,16 L40.6119199,16 C41.3750217,16 41.9993777,16.6622074 41.9993777,17.4715719 L41.9993777,36.5284281 C42.022502,37.3377926 41.398146,38 40.6350442,38 Z" id="路径" fill="#DFEBEA"></path>
                <path d="M40.1694335,38 L1.85326106,38 C0.833967477,38 0,37.1163287 0,36.036286 L0,16.963714 C0,15.8836713 0.833967477,15 1.85326106,15 L40.1462677,15 C41.1655613,15 41.9995288,15.8836713 41.9995288,16.963714 L41.9995288,36.036286 C42.0226945,37.1163287 41.188727,38 40.1694335,38 Z M1.85326106,15.981857 C1.34361427,15.981857 0.92663053,16.4236926 0.92663053,16.963714 L0.92663053,36.036286 C0.92663053,36.5763074 1.34361427,37.018143 1.85326106,37.018143 L40.1462677,37.018143 C40.6559145,37.018143 41.0728982,36.5763074 41.0728982,36.036286 L41.0728982,16.963714 C41.0728982,16.4236926 40.6559145,15.981857 40.1462677,15.981857 L1.85326106,15.981857 Z" id="形状" fill="#333333"></path>
                <path d="M35.1627907,25.7073171 L7.81395349,25.7073171 C7.37209302,25.7073171 7,25.3170732 7,24.8536585 C7,24.3902439 7.37209302,24 7.81395349,24 L35.1860465,24 C35.627907,24 36,24.3902439 36,24.8536585 C35.9767442,25.3170732 35.627907,25.7073171 35.1627907,25.7073171 Z M35.1627907,31 L7.81395349,31 C7.37209302,31 7,30.6097561 7,30.1463415 C7,29.6829268 7.37209302,29.2926829 7.81395349,29.2926829 L35.1860465,29.2926829 C35.627907,29.2926829 36,29.6829268 36,30.1463415 C35.9767442,30.6097561 35.627907,31 35.1627907,31 Z" id="形状" fill="#5B908E"></path>
            </g>
            <rect id="矩形" fill="#FFFFFF" x="36" y="25" width="37" height="35" rx="3"></rect>
            <circle id="椭圆形" fill="#DFEBEA" cx="65" cy="52" r="10"></circle>
            <g id="网页" transform="translate(41.000000, 29.000000)" fill-rule="nonzero">
                <path d="M1.72552085,0 L42.2744791,0 C43.2276587,0 44,0.788637998 44,1.7619301 L44,35.2380699 C44,36.211362 43.2276587,37 42.2744791,37 L1.72552085,37 C0.772341257,37 0,36.211362 0,35.2380699 L0,1.7619301 C0,0.789170142 0.772341257,0 1.72552085,0 Z M1.72552085,0.881231123 C1.24919163,0.881231123 0.863021,1.27555012 0.863021,1.7619301 L0.863021,35.2380699 C0.863021,35.7244499 1.24919163,36.1187689 1.72552085,36.1187689 L42.2744791,36.1187689 C42.7508084,36.1187689 43.136979,35.7244499 43.136979,35.2380699 L43.136979,1.7619301 C43.136979,1.27555012 42.7508084,0.881231123 42.2744791,0.881231123 L1.72552085,0.881231123 Z" id="形状" fill="#314659"></path>
                <path d="M1.72552085,0 L42.2744791,0 C43.2276587,0 44,0.7984262 44,1.78379834 L44,8.91899172 L0,8.91899172 L0,1.78379834 C0,0.798964949 0.772341257,0 1.72552085,0 Z M0.862499852,8.02736193 L43.136979,8.02736193 L43.136979,1.78379834 C43.136979,1.29138165 42.7508084,0.892168547 42.2744791,0.892168547 L1.72552085,0.892168547 C1.24919163,0.892168547 0.863021,1.29138165 0.863021,1.78379834 L0.863021,8.02736193 L0.862499852,8.02736193 Z M28.4942851,29.2239074 C27.9533336,28.7578894 27.3670421,28.3382038 26.6452522,28.0117219 C26.6452522,27.9648507 26.6905921,27.9185183 26.6905921,27.9185183 C26.9162492,27.2192219 27.0965663,26.426722 27.1867249,25.634222 C27.1867249,25.5410184 27.2320648,25.4478148 27.2320648,25.30774 C27.2774047,24.9812581 27.3222234,24.7016473 27.3222234,24.3751653 C27.3222234,24.2350905 27.3222234,24.1418869 27.3675633,24.0023509 C27.3675633,23.7227401 27.3675633,23.4894617 27.4129031,23.2098509 L31.0208104,23.2098509 C30.8842696,25.5404796 29.9373438,27.6383687 28.4942851,29.2239074 Z M24.6607208,31.6477397 C24.841038,31.4144613 25.0213552,31.1817217 25.2016724,30.9484433 C25.2016724,30.9015722 25.2470123,30.9015722 25.2470123,30.8552397 C25.6076467,30.3423506 25.9234623,29.7362578 26.1939381,29.0838326 C26.1939381,29.0369615 26.239278,28.990629 26.239278,28.990629 C26.239278,28.9437579 26.2846178,28.8974254 26.2846178,28.8505543 C26.8255694,29.1301651 27.3217023,29.456647 27.7730164,29.8294614 C26.915728,30.6688325 25.8333037,31.2749253 24.6607208,31.6477397 L24.6607208,31.6477397 Z M22.4510535,32.0210928 L22.4510535,27.8716471 C23.5782966,27.9185183 24.6159021,28.1512579 25.5174881,28.4777399 C24.7962193,30.4355542 23.713795,31.7409433 22.4510535,32.0210928 Z M22.4510535,23.2093122 L26.5097538,23.2093122 C26.4644139,24.8411833 26.239278,26.3329796 25.8333037,27.6383687 C24.7962193,27.2655543 23.6684552,27.032276 22.4510535,26.9854048 L22.4510535,23.2093122 Z M22.4510535,18.547516 C23.6684552,18.5006449 24.7962193,18.2679052 25.8333037,17.8950909 C26.239278,19.20048 26.464935,20.6922763 26.5097538,22.3241474 L22.4510535,22.3241474 L22.4510535,18.547516 Z M22.4510535,13.4654956 C23.713795,13.7451064 24.7962193,15.0504955 25.5174881,16.9619774 C24.5705622,17.3347918 23.5329567,17.521199 22.4510535,17.5680701 L22.4510535,13.4654956 L22.4510535,13.4654956 Z M27.817314,15.6565882 C27.366521,16.0294026 26.8703881,16.3558846 26.3289154,16.6354954 C26.3289154,16.5886242 26.2835755,16.5422918 26.2835755,16.4954206 C26.2835755,16.4485495 26.2382357,16.402217 26.2382357,16.402217 C25.9677599,15.7492531 25.6519442,15.1436991 25.2913099,14.6308099 C25.2913099,14.5839387 25.24597,14.5839387 25.24597,14.5376063 C25.0656528,14.304328 24.8853356,14.0715883 24.7050184,13.83831 C25.8333037,14.2116631 26.915728,14.8177559 27.817314,15.6565882 L27.817314,15.6565882 Z M31.0197681,22.2772762 L27.4118609,22.2772762 C27.4118609,21.9976654 27.4118609,21.7180546 27.366521,21.4847763 C27.366521,21.3447015 27.366521,21.2514979 27.3211811,21.1119619 C27.2758412,20.7854799 27.2758412,20.5058691 27.2310225,20.1793871 C27.2310225,20.0861835 27.1856826,19.9929799 27.1856826,19.8529052 C27.0501842,19.0604052 26.869867,18.2679052 26.6895498,17.5686089 C26.6895498,17.5217377 26.6442099,17.4754053 26.6442099,17.4754053 C27.32066,17.1489233 27.9522913,16.7292378 28.4932428,16.2632198 C29.9373438,17.8482197 30.8842696,19.9461088 31.0197681,22.2772762 L31.0197681,22.2772762 Z M21.5489465,17.6149413 C20.4217034,17.5680701 19.3840979,17.3353305 18.4825119,17.0088485 C19.2043018,15.0504955 20.3315448,13.7451064 21.5489465,13.5123667 L21.5489465,17.6149413 L21.5489465,17.6149413 Z M21.5489465,22.2772762 L17.4902462,22.2772762 C17.5355861,20.6454051 17.760722,19.1536088 18.1666963,17.8482197 C19.2037807,18.2210341 20.3315448,18.4543124 21.5489465,18.5011836 L21.5489465,22.2772762 L21.5489465,22.2772762 Z M21.5489465,26.9390724 C20.3315448,26.9859435 19.2037807,27.2186832 18.1666963,27.5914976 C17.760722,26.2861084 17.535065,24.7943121 17.4902462,23.162441 L21.5489465,23.162441 L21.5489465,26.9390724 L21.5489465,26.9390724 Z M21.5489465,32.0210928 C20.286205,31.741482 19.2037807,30.4360929 18.4825119,28.524611 C19.4294378,28.1517966 20.4670433,27.9653895 21.5489465,27.9185183 L21.5489465,32.0210928 L21.5489465,32.0210928 Z M16.1821649,29.8294614 C16.6329579,29.456647 17.1290907,29.1301651 17.6705634,28.8505543 C17.6705634,28.8974254 17.7159033,28.9437579 17.7159033,28.990629 C17.7159033,29.0375002 17.7612432,29.0838326 17.7612432,29.0838326 C18.031719,29.7367966 18.3475346,30.3423506 18.708169,30.8552397 C18.708169,30.9021109 18.7535089,30.9021109 18.7535089,30.9484433 C18.9338261,31.1817217 19.1141432,31.4144613 19.2944604,31.6477397 C18.1666963,31.2749253 17.084272,30.6688325 16.1821649,29.8294614 L16.1821649,29.8294614 Z M12.9802319,23.2093122 L16.5881391,23.2093122 C16.5881391,23.488923 16.5881391,23.7685338 16.633479,24.0018122 C16.633479,24.1418869 16.633479,24.2350905 16.6788189,24.3746265 C16.7241588,24.7011085 16.7241588,24.9807193 16.7689775,25.3072013 C16.7689775,25.4004049 16.8143174,25.4936085 16.8143174,25.6336832 C16.9498158,26.4261832 17.130133,27.2186832 17.3104502,27.9179795 C17.3104502,27.9648507 17.3557901,28.0111831 17.3557901,28.0111831 C16.67934,28.3376651 16.0477087,28.7573507 15.5067572,29.2233687 C14.0626562,27.6383687 13.1157304,25.5404796 12.9802319,23.2093122 L12.9802319,23.2093122 Z M15.5057149,16.262681 C16.0466664,16.728699 16.6329579,17.1483846 17.3547478,17.4748665 C17.3547478,17.5217377 17.3094079,17.5680701 17.3094079,17.5680701 C17.0837508,18.2673665 16.9034337,19.0598665 16.8132751,19.8523664 C16.8132751,19.94557 16.7679352,20.0387736 16.7679352,20.1788484 C16.7225953,20.5053304 16.6777766,20.7849411 16.6777766,21.1114231 C16.6777766,21.2514979 16.6777766,21.3447015 16.6324367,21.4842375 C16.6324367,21.7638483 16.6324367,21.9971267 16.5870969,22.2767375 L12.9802319,22.2767375 C13.1157304,19.9461088 14.0626562,17.8482197 15.5057149,16.262681 L15.5057149,16.262681 Z M19.3392792,13.8388487 C19.158962,14.0721271 18.9786448,14.3048667 18.7983276,14.5381451 C18.7983276,14.5850162 18.7529877,14.5850162 18.7529877,14.6313487 C18.3923533,15.1442378 18.0765377,15.7503306 17.8060619,16.4027558 C17.8060619,16.449627 17.760722,16.4959594 17.760722,16.4959594 C17.760722,16.5428306 17.7153822,16.589163 17.7153822,16.6360342 C17.1744306,16.3564234 16.6782977,16.0299414 16.2269836,15.657127 C17.084272,14.8177559 18.1666963,14.2116631 19.3392792,13.8388487 L19.3392792,13.8388487 Z M21.9997394,12.4865884 C16.5427993,12.4865884 12.0781248,17.0557197 12.0781248,22.7432942 C12.0781248,28.4308687 16.5427993,33 21.9997394,33 C27.5014983,33 31.921354,28.4308687 31.921354,22.7432942 C31.921354,17.0557197 27.5020194,12.4865884 21.9997394,12.4865884 L21.9997394,12.4865884 Z" id="形状" fill="#333333"></path>
                <path d="M36,4 C36,4.71453117 36.3811978,5.37478521 37,5.7320508 C37.6188021,6.0893164 38.3811979,6.0893164 39,5.7320508 C39.6188022,5.37478521 40,4.71453117 40,4 C40,3.28546883 39.6188022,2.62521479 39,2.2679492 C38.3811979,1.9106836 37.6188021,1.9106836 37,2.2679492 C36.3811978,2.62521479 36,3.28546883 36,4 Z" id="路径" fill="#314659"></path>
                <path d="M29,4 C29,5.1045695 29.8954305,6 31,6 C32.1045695,6 33,5.1045695 33,4 C33,2.8954305 32.1045695,2 31,2 C29.8954305,2 29,2.8954305 29,4 Z" id="路径" fill="#314659"></path>
                <path d="M37,4 C37,4.55228475 37.4477153,5 38,5 C38.5522847,5 39,4.55228475 39,4 C39,3.44771525 38.5522847,3 38,3 C37.4477153,3 37,3.44771525 37,4 L37,4 Z" id="路径" fill="#5B908E"></path>
                <path d="M30,4 C30,4.55228475 30.4477153,5 31,5 C31.5522847,5 32,4.55228475 32,4 C32,3.44771525 31.5522847,3 31,3 C30.4477153,3 30,3.44771525 30,4 L30,4 Z" id="路径" fill="#5B908E"></path>
            </g>
        </g>
    </g>
</svg>