<?xml version="1.0" encoding="UTF-8"?>
<svg width="29px" height="25px" viewBox="0 0 29 25" version="1.1" xmlns="http://www.w3.org/2000/svg" xmlns:xlink="http://www.w3.org/1999/xlink">
    <!-- Generator: Sketch 55.1 (78136) - https://sketchapp.com -->
    <title>audio (2)</title>
    <desc>Created with Sketch.</desc>
    <g id="页面1" stroke="none" stroke-width="1" fill="none" fill-rule="evenodd">
        <g id="audio-(2)" fill="#333333" fill-rule="nonzero">
            <path d="M25.4305182,11.5005448 L25.2809589,11.5005448 L25.2809589,10.3149217 C25.2809589,4.62752319 20.4488342,0 14.5090642,0 C8.56929424,0 3.73716947,4.62752319 3.73716947,10.3149217 L3.73716947,11.5005448 L3.56766894,11.5005448 C1.60073764,11.5005448 0,13.032873 0,14.9172953 L0,17.8499162 C0,19.7343385 1.60073764,21.2666667 3.56766894,21.2666667 L5.33609427,21.2666667 C6.17906482,21.2666667 6.86250547,20.6118793 6.86250547,19.8052963 L6.86250547,12.9619152 C6.86250547,12.154434 6.17906482,11.5005448 5.33609427,11.5005448 L5.26358067,11.5005448 L5.26358067,10.3149217 C5.26358067,5.43320804 9.41135838,1.46226859 14.5090642,1.46226859 C19.60677,1.46226859 23.7545477,5.43410624 23.7545477,10.3149217 L23.7545477,11.5005448 L23.6629993,11.5005448 C22.8200288,11.5005448 22.1365881,12.1553322 22.1365881,12.9619152 L22.1365881,19.8043981 C22.1365881,20.6118793 22.8200288,21.2657685 23.6629993,21.2657685 L25.4314246,21.2657685 C27.3992624,21.2657685 29,19.7334403 29,17.849018 L29,14.9163971 C28.9990936,13.032873 27.3983559,11.5005448 25.4305182,11.5005448 Z M5.33700069,12.9619152 L5.33700069,19.8043981 L3.56766894,19.8043981 C2.44461462,19.8043981 1.5264112,18.9241627 1.5264112,17.849018 L1.5264112,14.9163971 C1.5264112,13.8412524 2.44461462,12.961017 3.56766894,12.961017 L5.33700069,12.961017 L5.33700069,12.9619152 Z M27.4726824,17.849018 C27.4726824,18.9241627 26.554479,19.8043981 25.4305182,19.8043981 L23.6620929,19.8043981 L23.6620929,12.9619152 L25.4305182,12.9619152 C26.5535725,12.9619152 27.4726824,13.8412524 27.4726824,14.9172953 L27.4726824,17.849018 L27.4726824,17.849018 Z" id="形状"></path>
            <path d="M16.5960526,24.1666667 C16.2249088,24.1672071 15.9137105,23.8900782 15.8761439,23.5255715 L14.9597362,14.6128816 L14.0265865,19.8451508 C13.9721389,20.1596933 13.7126923,20.4002687 13.3912856,20.4342422 C13.0698789,20.4682157 12.7647178,20.2873208 12.6440446,19.991289 L11.2059896,16.5222467 L10.7565974,18.4785847 C10.6816346,18.8036874 10.3885333,19.0341524 10.0507873,19.0335619 L8.45676667,19.0335619 C8.26513387,19.0337927 8.08125698,18.9588637 7.94558688,18.8252583 C7.80991678,18.6916529 7.73356689,18.5103155 7.73333333,18.3211382 C7.73356689,18.131961 7.80991678,17.9506235 7.94558688,17.8170181 C8.08125698,17.6834127 8.26513387,17.6084837 8.45676667,17.6087145 L9.47274552,17.6087145 L10.3019182,13.9996231 C10.373639,13.6971934 10.6347263,13.4749209 10.948296,13.4493398 C11.2618657,13.4237586 11.5563724,13.6007055 11.6774108,13.8874099 L13.0352802,17.163341 L14.4398511,9.28927604 C14.5046599,8.93939263 14.8190289,8.68897466 15.1791454,8.70037393 C15.5398313,8.71286032 15.8358699,8.98616715 15.8726192,9.34059839 L16.9714272,20.0199947 L17.5785473,18.1845686 C17.6758878,17.890882 17.9537162,17.6924676 18.2667342,17.6930919 L19.5417744,17.6930919 C19.8081113,17.6800951 20.060049,17.8129683 20.1971638,18.0387474 C20.3342787,18.2645266 20.3342787,18.5465047 20.1971638,18.7722838 C20.060049,18.998063 19.8081113,19.1309361 19.5417744,19.1179393 L18.7919062,19.1179393 L17.2851206,23.6734495 C17.187123,23.9672845 16.9094183,24.1660581 16.5960526,24.1666667" id="路径"></path>
        </g>
    </g>
</svg>