<?xml version="1.0" encoding="UTF-8"?>
<svg width="36px" height="32px" viewBox="0 0 36 32" version="1.1" xmlns="http://www.w3.org/2000/svg" xmlns:xlink="http://www.w3.org/1999/xlink">
    <!-- Generator: Sketch 55.1 (78136) - https://sketchapp.com -->
    <title>编组 2</title>
    <desc>Created with Sketch.</desc>
    <g id="页面1" stroke="none" stroke-width="1" fill="none" fill-rule="evenodd">
        <g id="编组-2">
            <g id="声音" fill="#FFFFFF" fill-rule="nonzero">
                <path d="M15.9308851,0.618205625 L7.18170366,6.44400784 L3.60344562,6.44400784 C1.62833103,6.44400784 0.0251875937,8.27766863 0.0251875937,10.5304519 L0.0251875937,21.4328749 C0.0251875937,23.6908972 1.628331,25.5193189 3.60344562,25.5193189 L7.18170366,25.5193189 L15.925646,31.3503602 C17.0258425,32.0785855 18.4351418,32.1466929 19.5982066,31.5232482 C20.7612714,30.8998035 21.4842577,29.6895874 21.4894967,28.3745907 L21.4894967,3.59397513 C21.4894967,2.27373938 20.7612714,1.06352325 19.5982066,0.445317625 C18.4351417,-0.183366062 17.0258425,-0.115258656 15.9308851,0.618205625 L15.9308851,0.618205625 Z M7.18170366,23.1355599 L3.60344562,23.1355599 C3.02191322,23.1355599 2.40894659,22.4387688 2.40894659,21.4328749 L2.40894659,10.5356909 C2.40894659,9.529797 3.01667416,8.83300591 3.60344562,8.83300591 L7.18170366,8.83300591 L7.18170366,23.1355599 Z M19.1057377,28.3745907 C19.1057377,28.8146693 18.8647423,29.2180747 18.477054,29.4223968 C18.0893657,29.6319581 17.6178529,29.6057629 17.2563598,29.3647675 L9.56546266,24.2462344 L9.56546266,7.72233138 L17.2511208,2.59855928 C17.617853,2.35756388 18.0893658,2.33136872 18.471815,2.54092994 C18.8595032,2.75049116 19.1004987,3.15389653 19.1004987,3.59397513 L19.1004987,28.3745907 L19.1057377,28.3745907 Z" id="形状"></path>
            </g>
            <g id="编组" transform="translate(25.000000, 12.000000)" stroke="#FFFFFF" stroke-linecap="round" stroke-width="3">
                <path d="M5.68434189e-14,0 L8.93161831,8.93161831" id="路径-2"></path>
                <path d="M5.5067062e-14,-1.77635684e-15 L8.93161831,8.93161831" id="路径-2" transform="translate(4.465809, 4.465809) scale(-1, 1) translate(-4.465809, -4.465809) "></path>
            </g>
        </g>
    </g>
</svg>